<?xml version="1.0" encoding="UTF-8"?>
<!DOCTYPE svg PUBLIC "-//W3C//DTD SVG 1.1//EN" "http://www.w3.org/Graphics/SVG/1.1/DTD/svg11.dtd">
<svg xmlns="http://www.w3.org/2000/svg" version="1.1" width="896px" height="625px" style="shape-rendering:geometricPrecision; text-rendering:geometricPrecision; image-rendering:optimizeQuality; fill-rule:evenodd; clip-rule:evenodd" xmlns:xlink="http://www.w3.org/1999/xlink">
<g><path style="opacity:0.062" fill="#514e4e" d="M 263.5,-0.5 C 276.5,-0.5 289.5,-0.5 302.5,-0.5C 286.984,2.50782 276.484,11.5078 271,26.5C 269.536,52.7821 269.036,79.1155 269.5,105.5C 268.833,105.5 268.5,105.833 268.5,106.5C 268.167,236.001 268.5,365.334 269.5,494.5C 272.155,511.489 281.821,522.156 298.5,526.5C 300.147,528.326 302.147,529.66 304.5,530.5C 305.899,531.89 307.566,532.89 309.5,533.5C 311.205,535.192 313.205,536.525 315.5,537.5C 316.899,538.89 318.566,539.89 320.5,540.5C 322.822,542.664 325.489,544.331 328.5,545.5C 330.5,547.167 332.5,548.833 334.5,550.5C 322.124,550.843 309.791,550.343 297.5,549C 268.007,543.172 251.174,525.339 247,495.5C 245.35,346.183 245.017,196.85 246,47.5C 245.973,29.2462 251.807,13.2462 263.5,-0.5 Z"/></g>
<g><path style="opacity:1" fill="#494949" d="M 302.5,-0.5 C 389.833,-0.5 477.167,-0.5 564.5,-0.5C 569.56,1.52788 574.56,3.86122 579.5,6.5C 583.926,9.92084 587.593,13.9208 590.5,18.5C 585.824,39.3313 577.657,58.6646 566,76.5C 565.828,70.3193 565.328,64.3193 564.5,58.5C 564.666,50.8261 564.5,43.1594 564,35.5C 561.768,30.2694 557.935,26.7694 552.5,25C 529.833,24.3333 507.167,24.3333 484.5,25C 479.065,26.7694 475.232,30.2694 473,35.5C 472.667,47.1667 472.333,58.8333 472,70.5C 471.167,74 469,76.1667 465.5,77C 458.167,77.6667 450.833,77.6667 443.5,77C 440.619,75.7494 438.786,73.5827 438,70.5C 437.667,59.1667 437.333,47.8333 437,36.5C 435.167,30.6667 431.333,26.8333 425.5,25C 416.833,24.3333 408.167,24.3333 399.5,25C 394.09,26.7425 390.256,30.2425 388,35.5C 387.942,48.2364 387.275,60.9031 386,73.5C 384.681,75.4875 382.848,76.6541 380.5,77C 372.833,77.6667 365.167,77.6667 357.5,77C 354.572,75.7402 352.739,73.5735 352,70.5C 351.667,59.1667 351.333,47.8333 351,36.5C 349.037,30.2689 344.87,26.4356 338.5,25C 330.5,24.3333 322.5,24.3333 314.5,25C 309.09,26.7425 305.256,30.2425 303,35.5C 302.333,51.1667 302.333,66.8333 303,82.5C 304.312,84.6576 305.978,84.9909 308,83.5C 308.333,68.1667 308.667,52.8333 309,37.5C 310.167,35 312,33.1667 314.5,32C 322.5,31.3333 330.5,31.3333 338.5,32C 340.939,32.7739 342.773,34.2739 344,36.5C 344.333,48.1667 344.667,59.8333 345,71.5C 349.535,82.1011 357.535,86.1011 369,83.5C 373.5,83.3333 378,83.1667 382.5,83C 387.573,81.5944 391.073,78.4277 393,73.5C 393.333,61.5 393.667,49.5 394,37.5C 394.785,35.714 395.951,34.214 397.5,33C 406.732,31.3886 416.065,31.0553 425.5,32C 428.381,33.2506 430.214,35.4173 431,38.5C 431.06,50.9034 431.727,63.2368 433,75.5C 438.023,82.9029 445.023,85.5696 454,83.5C 458.167,83.3333 462.333,83.1667 466.5,83C 472.588,81.9099 476.421,78.4099 478,72.5C 478.333,60.8333 478.667,49.1667 479,37.5C 480.167,35 482,33.1667 484.5,32C 488.486,31.5012 492.486,31.3345 496.5,31.5C 502.833,31.5 509.167,31.5 515.5,31.5C 515.169,59.6716 515.502,87.6716 516.5,115.5C 518.198,118.124 520.031,118.124 522,115.5C 522.5,87.502 522.667,59.502 522.5,31.5C 532.506,31.3335 542.506,31.5002 552.5,32C 554.286,32.7845 555.786,33.9512 557,35.5C 558.473,53.0726 558.973,70.7393 558.5,88.5C 551.58,97.9332 544.413,107.266 537,116.5C 533.917,119.754 530.751,122.754 527.5,125.5C 517.23,121.381 509.73,124.381 505,134.5C 504.19,138.69 504.69,142.69 506.5,146.5C 497.366,154.96 487.366,162.294 476.5,168.5C 475.833,168.167 475.167,167.833 474.5,167.5C 473.693,149.877 473.193,132.21 473,114.5C 471.5,110.333 468.667,107.5 464.5,106C 399.501,105.5 334.501,105.333 269.5,105.5C 269.036,79.1155 269.536,52.7821 271,26.5C 276.484,11.5078 286.984,2.50782 302.5,-0.5 Z"/></g>
<g><path style="opacity:0.047" fill="#514e4e" d="M 564.5,-0.5 C 577.5,-0.5 590.5,-0.5 603.5,-0.5C 614.314,13.6036 619.98,29.6036 620.5,47.5C 618.833,46.1667 617.167,44.8333 615.5,43.5C 613.122,41.1223 610.455,39.1223 607.5,37.5C 606.167,35.5 604.5,33.8333 602.5,32.5C 601.71,31.5987 600.71,30.9321 599.5,30.5C 598.415,28.4131 596.749,27.0798 594.5,26.5C 593.677,23.5198 592.343,20.8531 590.5,18.5C 587.593,13.9208 583.926,9.92084 579.5,6.5C 574.56,3.86122 569.56,1.52788 564.5,-0.5 Z"/></g>
<g><path style="opacity:1" fill="#878787" d="M 590.5,18.5 C 592.343,20.8531 593.677,23.5198 594.5,26.5C 595.486,75.8035 595.819,125.137 595.5,174.5C 558.165,174.667 520.832,174.5 483.5,174C 480.428,173.093 478.095,171.26 476.5,168.5C 487.366,162.294 497.366,154.96 506.5,146.5C 512.375,152.642 519.375,154.142 527.5,151C 533.22,146.116 535.053,139.95 533,132.5C 531.334,130.004 529.5,127.671 527.5,125.5C 530.751,122.754 533.917,119.754 537,116.5C 544.413,107.266 551.58,97.9332 558.5,88.5C 558.334,97.8393 558.5,107.173 559,116.5C 560.667,117.833 562.333,117.833 564,116.5C 564.5,97.1695 564.667,77.8362 564.5,58.5C 565.328,64.3193 565.828,70.3193 566,76.5C 577.657,58.6646 585.824,39.3313 590.5,18.5 Z"/></g>
<g><path style="opacity:1" fill="#f8f8f8" d="M 564.5,58.5 C 564.667,77.8362 564.5,97.1695 564,116.5C 562.333,117.833 560.667,117.833 559,116.5C 558.5,107.173 558.334,97.8393 558.5,88.5C 558.973,70.7393 558.473,53.0726 557,35.5C 555.786,33.9512 554.286,32.7845 552.5,32C 542.506,31.5002 532.506,31.3335 522.5,31.5C 522.667,59.502 522.5,87.502 522,115.5C 520.031,118.124 518.198,118.124 516.5,115.5C 516.5,87.1667 516.5,58.8333 516.5,30.5C 509.646,30.176 502.979,30.5093 496.5,31.5C 492.486,31.3345 488.486,31.5012 484.5,32C 482,33.1667 480.167,35 479,37.5C 478.667,49.1667 478.333,60.8333 478,72.5C 476.421,78.4099 472.588,81.9099 466.5,83C 462.333,83.1667 458.167,83.3333 454,83.5C 445.023,85.5696 438.023,82.9029 433,75.5C 431.727,63.2368 431.06,50.9034 431,38.5C 430.214,35.4173 428.381,33.2506 425.5,32C 416.065,31.0553 406.732,31.3886 397.5,33C 395.951,34.214 394.785,35.714 394,37.5C 393.667,49.5 393.333,61.5 393,73.5C 391.073,78.4277 387.573,81.5944 382.5,83C 378,83.1667 373.5,83.3333 369,83.5C 357.535,86.1011 349.535,82.1011 345,71.5C 344.667,59.8333 344.333,48.1667 344,36.5C 342.773,34.2739 340.939,32.7739 338.5,32C 330.5,31.3333 322.5,31.3333 314.5,32C 312,33.1667 310.167,35 309,37.5C 308.667,52.8333 308.333,68.1667 308,83.5C 305.978,84.9909 304.312,84.6576 303,82.5C 302.333,66.8333 302.333,51.1667 303,35.5C 305.256,30.2425 309.09,26.7425 314.5,25C 322.5,24.3333 330.5,24.3333 338.5,25C 344.87,26.4356 349.037,30.2689 351,36.5C 351.333,47.8333 351.667,59.1667 352,70.5C 352.739,73.5735 354.572,75.7402 357.5,77C 365.167,77.6667 372.833,77.6667 380.5,77C 382.848,76.6541 384.681,75.4875 386,73.5C 387.275,60.9031 387.942,48.2364 388,35.5C 390.256,30.2425 394.09,26.7425 399.5,25C 408.167,24.3333 416.833,24.3333 425.5,25C 431.333,26.8333 435.167,30.6667 437,36.5C 437.333,47.8333 437.667,59.1667 438,70.5C 438.786,73.5827 440.619,75.7494 443.5,77C 450.833,77.6667 458.167,77.6667 465.5,77C 469,76.1667 471.167,74 472,70.5C 472.333,58.8333 472.667,47.1667 473,35.5C 475.232,30.2694 479.065,26.7694 484.5,25C 507.167,24.3333 529.833,24.3333 552.5,25C 557.935,26.7694 561.768,30.2694 564,35.5C 564.5,43.1594 564.666,50.8261 564.5,58.5 Z"/></g>
<g><path style="opacity:0.367" fill="#7f7d7d" d="M 594.5,26.5 C 596.749,27.0798 598.415,28.4131 599.5,30.5C 598.957,30.56 598.624,30.8933 598.5,31.5C 599.212,34.6478 599.879,37.8145 600.5,41C 600.095,46.3353 600.095,51.8353 600.5,57.5C 597.6,169.632 597.434,281.632 600,393.5C 601.6,417.976 602.767,442.476 603.5,467C 603.575,476.373 602.908,485.539 601.5,494.5C 599.916,458.157 597.916,421.824 595.5,385.5C 595.5,315.833 595.5,246.167 595.5,176.5C 595.5,175.833 595.5,175.167 595.5,174.5C 595.819,125.137 595.486,75.8035 594.5,26.5 Z"/></g>
<g><path style="opacity:1" fill="#898989" d="M 496.5,31.5 C 502.979,30.5093 509.646,30.176 516.5,30.5C 516.5,58.8333 516.5,87.1667 516.5,115.5C 515.502,87.6716 515.169,59.6716 515.5,31.5C 509.167,31.5 502.833,31.5 496.5,31.5 Z"/></g>
<g><path style="opacity:0.326" fill="#918f8f" d="M 602.5,32.5 C 604.5,33.8333 606.167,35.5 607.5,37.5C 602.544,168.761 601.71,300.428 605,432.5C 606.416,454.487 607.083,476.487 607,498.5C 605.641,502.405 604.808,506.405 604.5,510.5C 603.733,511.172 603.066,512.005 602.5,513C 603.171,513.986 603.171,515.153 602.5,516.5C 600.833,517.167 599.167,517.833 597.5,518.5C 600.766,511.468 603.433,504.135 605.5,496.5C 603.232,440.668 601.232,384.668 599.5,328.5C 599.534,274.325 599.534,220.158 599.5,166C 600.789,137.342 601.789,108.675 602.5,80C 602.498,64.0325 602.498,48.1991 602.5,32.5 Z"/></g>
<g><path style="opacity:0.3" fill="#9d9c9c" d="M 607.5,37.5 C 610.455,39.1223 613.122,41.1223 615.5,43.5C 611.867,71.9071 609.7,100.907 609,130.5C 604.209,243.316 604.376,356.15 609.5,469C 609.333,476.833 609.167,484.667 609,492.5C 608.855,496.523 608.021,500.356 606.5,504C 607.201,506.468 606.534,508.635 604.5,510.5C 604.808,506.405 605.641,502.405 607,498.5C 607.083,476.487 606.416,454.487 605,432.5C 601.71,300.428 602.544,168.761 607.5,37.5 Z"/></g>
<g><path style="opacity:0.285" fill="#aaa9a9" d="M 615.5,43.5 C 617.167,44.8333 618.833,46.1667 620.5,47.5C 626.797,52.4621 632.797,57.7954 638.5,63.5C 632.533,69.6371 626.699,75.9704 621,82.5C 619.547,89.8165 618.214,97.1498 617,104.5C 614.568,130.462 612.401,156.296 610.5,182C 610.706,183.366 611.04,184.699 611.5,186C 610.284,209.982 609.284,233.982 608.5,258C 608.361,306.43 608.527,354.93 609,403.5C 609.169,417.339 609.669,431.006 610.5,444.5C 611.427,460.785 611.76,476.785 611.5,492.5C 611.436,496.22 610.936,499.886 610,503.5C 607.997,508.172 605.997,512.838 604,517.5C 603.051,519.093 601.885,520.426 600.5,521.5C 600.893,519.716 601.559,518.05 602.5,516.5C 603.171,515.153 603.171,513.986 602.5,513C 603.066,512.005 603.733,511.172 604.5,510.5C 606.534,508.635 607.201,506.468 606.5,504C 608.021,500.356 608.855,496.523 609,492.5C 609.167,484.667 609.333,476.833 609.5,469C 604.376,356.15 604.209,243.316 609,130.5C 609.7,100.907 611.867,71.9071 615.5,43.5 Z"/></g>
<g><path style="opacity:0.266" fill="#b2b2b2" d="M 638.5,63.5 C 645.525,69.5293 652.525,75.5293 659.5,81.5C 646.874,95.9624 634.041,110.296 621,124.5C 614.67,165.481 611.336,206.814 611,248.5C 609.339,313.831 609.172,379.165 610.5,444.5C 609.669,431.006 609.169,417.339 609,403.5C 608.527,354.93 608.361,306.43 608.5,258C 609.284,233.982 610.284,209.982 611.5,186C 611.04,184.699 610.706,183.366 610.5,182C 612.401,156.296 614.568,130.462 617,104.5C 618.214,97.1498 619.547,89.8165 621,82.5C 626.699,75.9704 632.533,69.6371 638.5,63.5 Z"/></g>
<g><path style="opacity:0.252" fill="#b8b8b8" d="M 659.5,81.5 C 665.823,86.4908 671.823,91.8241 677.5,97.5C 658.9,117.937 640.067,138.271 621,158.5C 615.87,193.632 612.87,228.965 612,264.5C 610.623,313.173 610.456,361.839 611.5,410.5C 612.093,430.5 612.759,450.5 613.5,470.5C 613.373,478.032 612.707,485.366 611.5,492.5C 611.76,476.785 611.427,460.785 610.5,444.5C 609.172,379.165 609.339,313.831 611,248.5C 611.336,206.814 614.67,165.481 621,124.5C 634.041,110.296 646.874,95.9624 659.5,81.5 Z"/></g>
<g><path style="opacity:0.232" fill="#bebebe" d="M 677.5,97.5 C 683.489,102.157 689.156,107.157 694.5,112.5C 669.837,139.33 645.337,166.33 621,193.5C 619.039,208.85 617.205,224.183 615.5,239.5C 615.931,240.293 616.265,241.127 616.5,242C 614.577,261.438 613.411,280.938 613,300.5C 611.94,337.345 611.44,374.011 611.5,410.5C 610.456,361.839 610.623,313.173 612,264.5C 612.87,228.965 615.87,193.632 621,158.5C 640.067,138.271 658.9,117.937 677.5,97.5 Z"/></g>
<g><path style="opacity:1" fill="#d0cfcf" d="M 268.5,106.5 C 268.5,105.833 268.833,105.5 269.5,105.5C 334.501,105.333 399.501,105.5 464.5,106C 468.667,107.5 471.5,110.333 473,114.5C 473.193,132.21 473.693,149.877 474.5,167.5C 473.542,167.047 472.708,166.381 472,165.5C 471.667,149.167 471.333,132.833 471,116.5C 469.171,112.004 466.004,108.838 461.5,107C 397.168,106.5 332.834,106.333 268.5,106.5 Z"/></g>
<g><path style="opacity:1" fill="#ebebeb" d="M 268.5,106.5 C 332.834,106.333 397.168,106.5 461.5,107C 466.004,108.838 469.171,112.004 471,116.5C 471.333,132.833 471.667,149.167 472,165.5C 472.708,166.381 473.542,167.047 474.5,167.5C 475.167,167.833 475.833,168.167 476.5,168.5C 478.095,171.26 480.428,173.093 483.5,174C 520.832,174.5 558.165,174.667 595.5,174.5C 595.5,175.167 595.5,175.833 595.5,176.5C 558.498,176.667 521.498,176.5 484.5,176C 481.899,175.08 479.232,174.413 476.5,174C 474.957,172.122 473.124,170.622 471,169.5C 470.138,167.913 469.471,166.246 469,164.5C 468.667,148.5 468.333,132.5 468,116.5C 466.882,114.235 466.049,111.901 465.5,109.5C 400.189,108.514 334.856,108.181 269.5,108.5C 269.5,237.167 269.5,365.833 269.5,494.5C 268.5,365.334 268.167,236.001 268.5,106.5 Z"/></g>
<g><path style="opacity:1" fill="#fefefe" d="M 595.5,176.5 C 595.5,246.167 595.5,315.833 595.5,385.5C 595.667,422.168 595.5,458.835 595,495.5C 590.842,513.99 579.342,524.49 560.5,527C 527.502,527.5 494.502,527.667 461.5,527.5C 407.15,527.808 352.817,527.474 298.5,526.5C 281.821,522.156 272.155,511.489 269.5,494.5C 269.5,365.833 269.5,237.167 269.5,108.5C 334.856,108.181 400.189,108.514 465.5,109.5C 466.049,111.901 466.882,114.235 468,116.5C 468.333,132.5 468.667,148.5 469,164.5C 469.471,166.246 470.138,167.913 471,169.5C 473.124,170.622 474.957,172.122 476.5,174C 479.232,174.413 481.899,175.08 484.5,176C 521.498,176.5 558.498,176.667 595.5,176.5 Z"/></g>
<g><path style="opacity:0.209" fill="#c4c3c3" d="M 694.5,112.5 C 700.878,117.026 706.878,122.026 712.5,127.5C 682.206,160.963 651.706,194.296 621,227.5C 620.667,233.833 620.333,240.167 620,246.5C 619.667,244.167 619.333,241.833 619,239.5C 616.595,272.754 614.762,306.254 613.5,340C 613.334,387.732 613.667,435.565 614.5,483.5C 614.468,489.189 614.134,494.855 613.5,500.5C 613.277,504.162 612.277,507.495 610.5,510.5C 602.191,530.623 587.024,542.29 565,545.5C 519.422,543.712 473.922,543.045 428.5,543.5C 398.004,544.72 367.671,546.554 337.5,549C 339.5,549.333 341.5,549.667 343.5,550C 341.19,550.497 338.857,550.663 336.5,550.5C 335.833,550.5 335.167,550.5 334.5,550.5C 332.5,548.833 330.5,547.167 328.5,545.5C 328.389,544.883 328.056,544.383 327.5,544C 331.555,543.768 335.555,543.268 339.5,542.5C 340.167,542.833 340.833,543.167 341.5,543.5C 377.272,541.634 413.106,540.634 449,540.5C 483.179,541.349 517.346,542.183 551.5,543C 565.675,543.209 578.675,539.542 590.5,532C 594.402,529.6 597.402,526.434 599.5,522.5C 599.5,521.833 599.833,521.5 600.5,521.5C 601.885,520.426 603.051,519.093 604,517.5C 605.997,512.838 607.997,508.172 610,503.5C 610.936,499.886 611.436,496.22 611.5,492.5C 612.707,485.366 613.373,478.032 613.5,470.5C 612.759,450.5 612.093,430.5 611.5,410.5C 611.44,374.011 611.94,337.345 613,300.5C 613.411,280.938 614.577,261.438 616.5,242C 616.265,241.127 615.931,240.293 615.5,239.5C 617.205,224.183 619.039,208.85 621,193.5C 645.337,166.33 669.837,139.33 694.5,112.5 Z"/></g>
<g><path style="opacity:1" fill="#f7f7f7" d="M 527.5,125.5 C 529.5,127.671 531.334,130.004 533,132.5C 535.053,139.95 533.22,146.116 527.5,151C 519.375,154.142 512.375,152.642 506.5,146.5C 504.69,142.69 504.19,138.69 505,134.5C 509.73,124.381 517.23,121.381 527.5,125.5 Z"/></g>
<g><path style="opacity:1" fill="#fafafa" d="M 557.5,123.5 C 571.014,123.511 576.847,130.178 575,143.5C 570.936,151.61 564.436,154.443 555.5,152C 546.17,146.718 544.004,139.218 549,129.5C 551.671,127.098 554.505,125.098 557.5,123.5 Z"/></g>
<g><path style="opacity:0.185" fill="#cbcbcb" d="M 712.5,127.5 C 719.167,133.167 725.833,138.833 732.5,144.5C 695.171,185.33 658.004,226.33 621,267.5C 619.523,280.05 618.523,292.716 618,305.5C 616.214,306.787 616.047,308.287 617.5,310C 616.833,319.333 616.167,328.667 615.5,338C 615.735,338.873 616.069,339.707 616.5,340.5C 615.787,353.971 615.121,367.471 614.5,381C 615.002,415.29 615.002,449.456 614.5,483.5C 613.667,435.565 613.334,387.732 613.5,340C 614.762,306.254 616.595,272.754 619,239.5C 619.333,241.833 619.667,244.167 620,246.5C 620.333,240.167 620.667,233.833 621,227.5C 651.706,194.296 682.206,160.963 712.5,127.5 Z"/></g>
<g><path style="opacity:1" fill="#4c4c4c" d="M 522.5,130.5 C 519.833,135.167 516.167,138.833 511.5,141.5C 510.833,133.5 514.5,129.833 522.5,130.5 Z"/></g>
<g><path style="opacity:1" fill="#8a8a8a" d="M 557.5,130.5 C 566.161,129.329 569.994,132.996 569,141.5C 564.76,147.296 559.76,147.963 554,143.5C 551.348,138.039 552.514,133.706 557.5,130.5 Z"/></g>
<g><path style="opacity:1" fill="#888888" d="M 522.5,130.5 C 527.65,133.651 528.817,137.984 526,143.5C 520.367,148.005 515.533,147.338 511.5,141.5C 516.167,138.833 519.833,135.167 522.5,130.5 Z"/></g>
<g><path style="opacity:0.164" fill="#d1d1d1" d="M 732.5,144.5 C 738.823,149.491 744.823,154.824 750.5,160.5C 707.199,207.304 664.033,254.304 621,301.5C 619.508,320.048 618.175,338.715 617,357.5C 616.778,374.847 616.278,392.181 615.5,409.5C 616.629,434.82 616.796,460.153 616,485.5C 615.818,490.747 614.984,495.747 613.5,500.5C 614.134,494.855 614.468,489.189 614.5,483.5C 615.002,449.456 615.002,415.29 614.5,381C 615.121,367.471 615.787,353.971 616.5,340.5C 616.069,339.707 615.735,338.873 615.5,338C 616.167,328.667 616.833,319.333 617.5,310C 616.047,308.287 616.214,306.787 618,305.5C 618.523,292.716 619.523,280.05 621,267.5C 658.004,226.33 695.171,185.33 732.5,144.5 Z"/></g>
<g><path style="opacity:0.144" fill="#d7d7d7" d="M 750.5,160.5 C 756.489,165.157 762.156,170.157 767.5,175.5C 718.683,229.093 669.85,282.76 621,336.5C 620.667,346.5 620.333,356.5 620,366.5C 619.667,364.5 619.333,362.5 619,360.5C 618.5,376.163 618.333,391.83 618.5,407.5C 618.821,435.85 618.321,464.184 617,492.5C 616.093,499.465 614.26,506.131 611.5,512.5C 610.662,512.158 610.328,511.492 610.5,510.5C 612.277,507.495 613.277,504.162 613.5,500.5C 614.984,495.747 615.818,490.747 616,485.5C 616.796,460.153 616.629,434.82 615.5,409.5C 616.278,392.181 616.778,374.847 617,357.5C 618.175,338.715 619.508,320.048 621,301.5C 664.033,254.304 707.199,207.304 750.5,160.5 Z"/></g>
<g><path style="opacity:0.123" fill="#dddddd" d="M 767.5,175.5 C 773.54,180.51 779.54,185.51 785.5,190.5C 730.533,250.304 675.699,310.304 621,370.5C 620.667,382.5 620.333,394.5 620,406.5C 619.617,407.056 619.117,407.389 618.5,407.5C 618.333,391.83 618.5,376.163 619,360.5C 619.333,362.5 619.667,364.5 620,366.5C 620.333,356.5 620.667,346.5 621,336.5C 669.85,282.76 718.683,229.093 767.5,175.5 Z"/></g>
<g><path style="opacity:0.098" fill="#e4e4e4" d="M 785.5,190.5 C 792.5,196.5 799.5,202.5 806.5,208.5C 744.873,276.63 683.04,344.63 621,412.5C 620.5,424.162 620.333,435.829 620.5,447.5C 620.5,458.833 620.5,470.167 620.5,481.5C 620,523.329 599,546.329 557.5,550.5C 547.167,550.5 536.833,550.5 526.5,550.5C 515.828,550.333 505.161,550.5 494.5,551C 475.626,571.704 456.959,592.538 438.5,613.5C 430.001,608.752 421.668,603.752 413.5,598.5C 427.626,582.537 441.96,566.704 456.5,551C 491.483,549.255 526.483,548.088 561.5,547.5C 577.769,545.781 591.603,539.115 603,527.5C 606.364,522.77 609.197,517.77 611.5,512.5C 614.26,506.131 616.093,499.465 617,492.5C 618.321,464.184 618.821,435.85 618.5,407.5C 619.117,407.389 619.617,407.056 620,406.5C 620.333,394.5 620.667,382.5 621,370.5C 675.699,310.304 730.533,250.304 785.5,190.5 Z"/></g>
<g><path style="opacity:0.074" fill="#eaeaea" d="M 806.5,208.5 C 807.458,208.953 808.292,209.619 809,210.5C 809.466,220.841 809.3,231.175 808.5,241.5C 745.464,309.867 682.798,378.534 620.5,447.5C 620.333,435.829 620.5,424.162 621,412.5C 683.04,344.63 744.873,276.63 806.5,208.5 Z"/></g>
<g><path style="opacity:0.053" fill="#f0f0f0" d="M 808.5,241.5 C 808.642,253.518 808.309,265.518 807.5,277.5C 745.167,345.5 682.833,413.5 620.5,481.5C 620.5,470.167 620.5,458.833 620.5,447.5C 682.798,378.534 745.464,309.867 808.5,241.5 Z"/></g>
<g><path style="opacity:1" fill="#474747" d="M 545.5,273.5 C 539.675,327.472 518.008,373.805 480.5,412.5C 479.442,409.603 477.442,407.436 474.5,406C 468.175,405.5 461.842,405.334 455.5,405.5C 454.67,414.991 454.17,424.658 454,434.5C 420.102,456.851 383.268,471.851 343.5,479.5C 328.751,480.751 320.084,474.085 317.5,459.5C 317.5,439.833 317.5,420.167 317.5,400.5C 319.415,400.784 321.081,400.451 322.5,399.5C 325.704,398.622 327.37,396.455 327.5,393C 326.925,389.59 324.925,387.757 321.5,387.5C 320.432,386.566 319.099,386.232 317.5,386.5C 317.815,382.629 317.482,378.962 316.5,375.5C 319.092,373.823 322.092,372.657 325.5,372C 328.713,363.692 325.713,360.192 316.5,361.5C 316.5,356.833 316.5,352.167 316.5,347.5C 322.331,348.814 325.998,346.647 327.5,341C 325.778,335.797 322.111,333.631 316.5,334.5C 316.333,313.831 316.5,293.164 317,272.5C 320.344,263.157 326.844,257.323 336.5,255C 356.831,254.5 377.164,254.333 397.5,254.5C 397.248,263.702 401.248,266.369 409.5,262.5C 410.393,259.916 410.726,257.249 410.5,254.5C 415.167,254.5 419.833,254.5 424.5,254.5C 423.622,260.319 425.955,263.652 431.5,264.5C 436.936,263.434 438.936,260.101 437.5,254.5C 442.167,254.5 446.833,254.5 451.5,254.5C 451.062,263.523 454.895,266.189 463,262.5C 464.079,259.937 464.579,257.271 464.5,254.5C 485.836,254.333 507.169,254.5 528.5,255C 538.244,257.572 543.911,263.738 545.5,273.5 Z"/></g>
<g><path style="opacity:0.03" fill="#f6f6f6" d="M 807.5,277.5 C 807.746,289.197 807.413,300.864 806.5,312.5C 711.826,415.842 617.493,519.508 523.5,623.5C 513.167,623.5 502.833,623.5 492.5,623.5C 513.773,598.889 535.44,574.556 557.5,550.5C 599,546.329 620,523.329 620.5,481.5C 682.833,413.5 745.167,345.5 807.5,277.5 Z"/></g>
<g><path style="opacity:1" fill="#878787" d="M 545.5,273.5 C 546.497,293.326 546.83,313.326 546.5,333.5C 540.669,332.186 537.002,334.353 535.5,340C 536.863,345.692 540.529,347.859 546.5,346.5C 546.5,351.167 546.5,355.833 546.5,360.5C 540.682,358.969 537.016,360.969 535.5,366.5C 537.016,372.031 540.682,374.031 546.5,372.5C 546.5,377.167 546.5,381.833 546.5,386.5C 540.858,385.15 537.192,387.15 535.5,392.5C 536.993,398.087 540.66,400.421 546.5,399.5C 546.667,420.169 546.5,440.836 546,461.5C 543.071,470.096 537.237,475.596 528.5,478C 507.493,478.357 486.493,478.857 465.5,479.5C 466.814,473.669 464.647,470.002 459,468.5C 453.289,469.905 451.123,473.572 452.5,479.5C 447.833,479.5 443.167,479.5 438.5,479.5C 438.678,469.182 434.511,466.849 426,472.5C 425.503,474.81 425.337,477.143 425.5,479.5C 420.833,479.5 416.167,479.5 411.5,479.5C 412.049,470.195 408.215,467.528 400,471.5C 398.748,474.014 398.248,476.68 398.5,479.5C 380.167,479.5 361.833,479.5 343.5,479.5C 383.268,471.851 420.102,456.851 454,434.5C 454.17,424.658 454.67,414.991 455.5,405.5C 455.5,415.833 455.5,426.167 455.5,436.5C 457.833,436.5 460.167,436.5 462.5,436.5C 462.5,432.833 462.5,429.167 462.5,425.5C 474.073,428.41 480.073,424.076 480.5,412.5C 518.008,373.805 539.675,327.472 545.5,273.5 Z"/></g>
<g><path style="opacity:1" fill="#df362d" d="M 432.5,301.5 C 450.699,301.011 463.532,309.011 471,325.5C 472.492,330.411 472.826,335.411 472,340.5C 471.107,341.711 470.274,341.711 469.5,340.5C 462.437,323.104 450.103,311.104 432.5,304.5C 431.438,303.575 431.438,302.575 432.5,301.5 Z"/></g>
<g><path style="opacity:1" fill="#e0352c" d="M 418.5,305.5 C 445.868,309.84 462.534,325.507 468.5,352.5C 467.498,359.508 463.498,362.508 456.5,361.5C 456.272,341.549 446.939,327.715 428.5,320C 422.985,318.11 417.319,317.276 411.5,317.5C 411.337,315.143 411.503,312.81 412,310.5C 414.326,308.934 416.492,307.268 418.5,305.5 Z"/></g>
<g><path style="opacity:1" fill="#da362e" d="M 404.5,307.5 C 405.627,308.122 406.627,308.955 407.5,310C 393.271,325.629 391.771,342.462 403,360.5C 418.928,378.189 437.428,381.356 458.5,370C 460.641,368.692 462.641,367.192 464.5,365.5C 465.5,365.833 466.167,366.5 466.5,367.5C 457.707,376.605 446.874,380.938 434,380.5C 407.84,377.675 394.007,363.175 392.5,337C 392.23,325.38 396.23,315.547 404.5,307.5 Z"/></g>
<g><path style="opacity:0.011" fill="#fbfbfb" d="M 806.5,312.5 C 806.891,322.233 806.391,331.9 805,341.5C 719.131,435.034 633.631,528.867 548.5,623C 540.173,623.5 531.84,623.666 523.5,623.5C 617.493,519.508 711.826,415.842 806.5,312.5 Z"/></g>
<g><path style="opacity:1" fill="#e1352c" d="M 407.5,321.5 C 439.148,321.979 453.981,337.979 452,369.5C 449.057,372.262 445.557,373.095 441.5,372C 440.484,371.481 439.818,370.647 439.5,369.5C 442.903,354.859 438.237,343.693 425.5,336C 421.037,334.025 416.371,333.192 411.5,333.5C 411.33,334.822 411.663,335.989 412.5,337C 430.495,339.329 438.328,349.496 436,367.5C 432.525,375.554 427.691,376.054 421.5,369C 426.969,360.064 424.969,353.397 415.5,349C 400.296,347.432 395.796,339.599 402,325.5C 404.015,324.303 405.849,322.97 407.5,321.5 Z"/></g>
<g><path style="opacity:1" fill="#e0352c" d="M 409.5,354.5 C 416.587,352.923 419.753,355.59 419,362.5C 415.818,366.057 412.318,366.391 408.5,363.5C 406.992,360.231 407.325,357.231 409.5,354.5 Z"/></g>
<g><path style="opacity:1" fill="#969696" d="M 316.5,375.5 C 317.482,378.962 317.815,382.629 317.5,386.5C 319.099,386.232 320.432,386.566 321.5,387.5C 319.833,387.5 318.167,387.5 316.5,387.5C 316.5,383.5 316.5,379.5 316.5,375.5 Z"/></g>
<g><path style="opacity:1" fill="#a2a2a2" d="M 322.5,399.5 C 321.081,400.451 319.415,400.784 317.5,400.5C 317.5,420.167 317.5,439.833 317.5,459.5C 316.503,439.674 316.17,419.674 316.5,399.5C 318.5,399.5 320.5,399.5 322.5,399.5 Z"/></g>
<g><path style="opacity:1" fill="#fdfdfd" d="M 413.5,430.5 C 413.5,432.5 413.5,434.5 413.5,436.5C 405.833,436.5 398.167,436.5 390.5,436.5C 390.5,426.167 390.5,415.833 390.5,405.5C 398.167,405.5 405.833,405.5 413.5,405.5C 413.5,407.5 413.5,409.5 413.5,411.5C 408.167,411.5 402.833,411.5 397.5,411.5C 397.5,413.833 397.5,416.167 397.5,418.5C 402.5,418.5 407.5,418.5 412.5,418.5C 412.5,420.167 412.5,421.833 412.5,423.5C 407.5,423.5 402.5,423.5 397.5,423.5C 397.5,425.833 397.5,428.167 397.5,430.5C 402.833,430.5 408.167,430.5 413.5,430.5 Z"/></g>
<g><path style="opacity:1" fill="#f2f2f2" d="M 427.5,405.5 C 431.514,405.334 435.514,405.501 439.5,406C 443.655,407.811 445.655,410.977 445.5,415.5C 443.167,415.5 440.833,415.5 438.5,415.5C 437.615,411.216 434.949,409.716 430.5,411C 428.473,412.396 428.14,414.062 429.5,416C 435.749,416.967 441.249,419.467 446,423.5C 447.962,430.075 445.795,434.575 439.5,437C 433.621,438.223 428.121,437.389 423,434.5C 420.977,432.231 420.144,429.564 420.5,426.5C 422.833,426.5 425.167,426.5 427.5,426.5C 428.293,431.776 431.293,433.609 436.5,432C 439.993,430.522 440.326,428.522 437.5,426C 431.444,425.211 426.277,422.711 422,418.5C 421.333,415.833 421.333,413.167 422,410.5C 423.73,408.598 425.563,406.931 427.5,405.5 Z"/></g>
<g><path style="opacity:1" fill="#f9f9f9" d="M 455.5,405.5 C 461.842,405.334 468.175,405.5 474.5,406C 477.442,407.436 479.442,409.603 480.5,412.5C 480.073,424.076 474.073,428.41 462.5,425.5C 462.5,429.167 462.5,432.833 462.5,436.5C 460.167,436.5 457.833,436.5 455.5,436.5C 455.5,426.167 455.5,415.833 455.5,405.5 Z"/></g>
<g><path style="opacity:1" fill="#4e4e4e" d="M 462.5,410.5 C 466.054,410.15 469.388,410.816 472.5,412.5C 473.91,414.949 473.576,417.116 471.5,419C 468.649,420.289 465.649,420.789 462.5,420.5C 462.5,417.167 462.5,413.833 462.5,410.5 Z"/></g>
<g><path style="opacity:1" fill="#7a7a7a" d="M 413.5,430.5 C 414.468,432.607 414.802,434.941 414.5,437.5C 406.316,437.826 398.316,437.492 390.5,436.5C 398.167,436.5 405.833,436.5 413.5,436.5C 413.5,434.5 413.5,432.5 413.5,430.5 Z"/></g>
<g><path style="opacity:0.195" fill="#737171" d="M 595.5,385.5 C 597.916,421.824 599.916,458.157 601.5,494.5C 601.33,495.822 601.663,496.989 602.5,498C 600.895,503.535 599.228,509.035 597.5,514.5C 593.291,517.033 589.624,520.367 586.5,524.5C 583.258,526.371 580.092,528.371 577,530.5C 576.667,530.167 576.333,529.833 576,529.5C 573.18,531.206 570.346,532.039 567.5,532C 531.968,531.211 496.635,529.711 461.5,527.5C 494.502,527.667 527.502,527.5 560.5,527C 579.342,524.49 590.842,513.99 595,495.5C 595.5,458.835 595.667,422.168 595.5,385.5 Z"/></g>
<g><path style="opacity:0.323" fill="#858383" d="M 599.5,30.5 C 600.71,30.9321 601.71,31.5987 602.5,32.5C 602.498,48.1991 602.498,64.0325 602.5,80C 601.789,108.675 600.789,137.342 599.5,166C 599.534,220.158 599.534,274.325 599.5,328.5C 601.232,384.668 603.232,440.668 605.5,496.5C 603.433,504.135 600.766,511.468 597.5,518.5C 594.167,521.167 591.167,524.167 588.5,527.5C 581.765,530.058 575.431,532.725 569.5,535.5C 518.595,532.657 467.595,530.657 416.5,529.5C 414.015,529.943 411.515,530.276 409,530.5C 374.607,529.86 340.273,529.194 306,528.5C 305.283,529.044 304.783,529.711 304.5,530.5C 302.147,529.66 300.147,528.326 298.5,526.5C 352.817,527.474 407.15,527.808 461.5,527.5C 496.635,529.711 531.968,531.211 567.5,532C 570.346,532.039 573.18,531.206 576,529.5C 576.333,529.833 576.667,530.167 577,530.5C 580.092,528.371 583.258,526.371 586.5,524.5C 589.624,520.367 593.291,517.033 597.5,514.5C 599.228,509.035 600.895,503.535 602.5,498C 601.663,496.989 601.33,495.822 601.5,494.5C 602.908,485.539 603.575,476.373 603.5,467C 602.767,442.476 601.6,417.976 600,393.5C 597.434,281.632 597.6,169.632 600.5,57.5C 600.095,51.8353 600.095,46.3353 600.5,41C 599.879,37.8145 599.212,34.6478 598.5,31.5C 598.624,30.8933 598.957,30.56 599.5,30.5 Z"/></g>
<g><path style="opacity:0.188" fill="#908f8f" d="M 588.5,527.5 C 587.521,529.145 586.188,530.479 584.5,531.5C 576.019,535.796 567.019,537.796 557.5,537.5C 542.18,536.43 526.847,535.596 511.5,535C 474.459,534.377 437.459,533.544 400.5,532.5C 369.888,532.193 339.554,532.526 309.5,533.5C 307.566,532.89 305.899,531.89 304.5,530.5C 304.783,529.711 305.283,529.044 306,528.5C 340.273,529.194 374.607,529.86 409,530.5C 411.515,530.276 414.015,529.943 416.5,529.5C 467.595,530.657 518.595,532.657 569.5,535.5C 575.431,532.725 581.765,530.058 588.5,527.5 Z"/></g>
<g><path style="opacity:0.251" fill="#9d9c9c" d="M 602.5,516.5 C 601.559,518.05 600.893,519.716 600.5,521.5C 599.833,521.5 599.5,521.833 599.5,522.5C 595.563,526.471 591.23,529.971 586.5,533C 581.706,535.497 577.04,537.33 572.5,538.5C 534.955,539.705 497.455,538.705 460,535.5C 412.986,535.511 365.986,535.511 319,535.5C 317.541,535.808 316.374,536.475 315.5,537.5C 313.205,536.525 311.205,535.192 309.5,533.5C 339.554,532.526 369.888,532.193 400.5,532.5C 437.459,533.544 474.459,534.377 511.5,535C 526.847,535.596 542.18,536.43 557.5,537.5C 567.019,537.796 576.019,535.796 584.5,531.5C 586.188,530.479 587.521,529.145 588.5,527.5C 591.167,524.167 594.167,521.167 597.5,518.5C 599.167,517.833 600.833,517.167 602.5,516.5 Z"/></g>
<g><path style="opacity:0.142" fill="#a9a8a8" d="M 572.5,538.5 C 570.369,539.314 568.036,539.814 565.5,540C 558.333,540.167 551.167,540.333 544,540.5C 469.336,537.907 394.836,537.907 320.5,540.5C 318.566,539.89 316.899,538.89 315.5,537.5C 316.374,536.475 317.541,535.808 319,535.5C 365.986,535.511 412.986,535.511 460,535.5C 497.455,538.705 534.955,539.705 572.5,538.5 Z"/></g>
<g><path style="opacity:0.213" fill="#b6b5b5" d="M 599.5,522.5 C 597.402,526.434 594.402,529.6 590.5,532C 578.675,539.542 565.675,543.209 551.5,543C 517.346,542.183 483.179,541.349 449,540.5C 413.106,540.634 377.272,541.634 341.5,543.5C 340.833,543.167 340.167,542.833 339.5,542.5C 335.555,543.268 331.555,543.768 327.5,544C 328.056,544.383 328.389,544.883 328.5,545.5C 325.489,544.331 322.822,542.664 320.5,540.5C 394.836,537.907 469.336,537.907 544,540.5C 551.167,540.333 558.333,540.167 565.5,540C 568.036,539.814 570.369,539.314 572.5,538.5C 577.04,537.33 581.706,535.497 586.5,533C 591.23,529.971 595.563,526.471 599.5,522.5 Z"/></g>
<g><path style="opacity:0.154" fill="#d0d0d0" d="M 610.5,510.5 C 610.328,511.492 610.662,512.158 611.5,512.5C 609.197,517.77 606.364,522.77 603,527.5C 591.603,539.115 577.769,545.781 561.5,547.5C 505.563,544.499 449.563,545.832 393.5,551.5C 386.826,558.865 380.159,566.199 373.5,573.5C 360.879,566.195 348.545,558.528 336.5,550.5C 338.857,550.663 341.19,550.497 343.5,550C 341.5,549.667 339.5,549.333 337.5,549C 367.671,546.554 398.004,544.72 428.5,543.5C 473.922,543.045 519.422,543.712 565,545.5C 587.024,542.29 602.191,530.623 610.5,510.5 Z"/></g>
<g><path style="opacity:0.121" fill="#dbdbdb" d="M 561.5,547.5 C 526.483,548.088 491.483,549.255 456.5,551C 441.96,566.704 427.626,582.537 413.5,598.5C 400.131,590.153 386.797,581.819 373.5,573.5C 380.159,566.199 386.826,558.865 393.5,551.5C 449.563,545.832 505.563,544.499 561.5,547.5 Z"/></g>
<g><path style="opacity:0.074" fill="#eaeaea" d="M 526.5,550.5 C 504.5,574.833 482.5,599.167 460.5,623.5C 452.2,622.351 444.866,619.018 438.5,613.5C 456.959,592.538 475.626,571.704 494.5,551C 505.161,550.5 515.828,550.333 526.5,550.5 Z"/></g>
<g><path style="opacity:0.052" fill="#f0f0f0" d="M 526.5,550.5 C 536.833,550.5 547.167,550.5 557.5,550.5C 535.44,574.556 513.773,598.889 492.5,623.5C 481.833,623.5 471.167,623.5 460.5,623.5C 482.5,599.167 504.5,574.833 526.5,550.5 Z"/></g>
</svg>
