<?xml version="1.0" encoding="UTF-8"?>
<!DOCTYPE svg PUBLIC "-//W3C//DTD SVG 1.1//EN" "http://www.w3.org/Graphics/SVG/1.1/DTD/svg11.dtd">
<svg xmlns="http://www.w3.org/2000/svg" version="1.1" width="228px" height="228px" style="shape-rendering:geometricPrecision; text-rendering:geometricPrecision; image-rendering:optimizeQuality; fill-rule:evenodd; clip-rule:evenodd" xmlns:xlink="http://www.w3.org/1999/xlink">
<g><path style="opacity:0.964" fill="#0d223f" d="M 98.5,-0.5 C 108.5,-0.5 118.5,-0.5 128.5,-0.5C 183.833,10.1667 216.833,43.1667 227.5,98.5C 227.5,108.5 227.5,118.5 227.5,128.5C 216.833,183.833 183.833,216.833 128.5,227.5C 118.5,227.5 108.5,227.5 98.5,227.5C 43.1667,216.833 10.1667,183.833 -0.5,128.5C -0.5,118.5 -0.5,108.5 -0.5,98.5C 10.1667,43.1667 43.1667,10.1667 98.5,-0.5 Z"/></g>
<g><path style="opacity:1" fill="#fafafb" d="M 102.5,13.5 C 151.765,11.6517 186.598,32.9851 207,77.5C 221.122,120.512 211.955,157.678 179.5,189C 143.77,217.035 105.437,221.035 64.5,201C 22.6761,173.827 6.84275,135.661 17,86.5C 31.1256,45.2058 59.6256,20.8724 102.5,13.5 Z"/></g>
<g><path style="opacity:1" fill="#182a47" d="M 74.5,31.5 C 77.1667,31.5 79.8333,31.5 82.5,31.5C 82.5,37.5 82.5,43.5 82.5,49.5C 79.5525,49.7771 76.7191,49.4438 74,48.5C 73.2153,42.7507 73.3819,37.084 74.5,31.5 Z"/></g>
<g><path style="opacity:1" fill="#172a46" d="M 96.5,31.5 C 104.495,29.4948 107.495,32.4948 105.5,40.5C 107.495,48.5052 104.495,51.5052 96.5,49.5C 96.5,43.5 96.5,37.5 96.5,31.5 Z"/></g>
<g><path style="opacity:1" fill="#152845" d="M 118.5,31.5 C 126.495,29.4948 129.495,32.4948 127.5,40.5C 129.495,48.5052 126.495,51.5052 118.5,49.5C 118.5,43.5 118.5,37.5 118.5,31.5 Z"/></g>
<g><path style="opacity:1" fill="#132743" d="M 140.5,31.5 C 148.495,29.4948 151.495,32.4948 149.5,40.5C 151.495,48.5052 148.495,51.5052 140.5,49.5C 140.5,43.5 140.5,37.5 140.5,31.5 Z"/></g>
<g><path style="opacity:1" fill="#0e2340" d="M 66.5,59.5 C 97.5018,59.3334 128.502,59.5 159.5,60C 161.96,61.4578 164.127,63.2911 166,65.5C 167.651,96.7476 167.985,128.081 167,159.5C 165.272,162.807 162.772,165.307 159.5,167C 128.5,167.667 97.5,167.667 66.5,167C 64.3762,165.878 62.5429,164.378 61,162.5C 59.3484,130.586 59.0151,98.5855 60,66.5C 62.0329,63.9698 64.1996,61.6365 66.5,59.5 Z"/></g>
<g><path style="opacity:1" fill="#f4f5f6" d="M 110.5,78.5 C 110.5,85.5 110.5,92.5 110.5,99.5C 117.687,99.8245 124.687,99.4912 131.5,98.5C 127.804,90.7522 130.137,88.5855 138.5,92C 152.782,96.4727 154.782,103.806 144.5,114C 139.778,116.933 134.778,118.099 129.5,117.5C 130.127,116.583 130.461,115.583 130.5,114.5C 131.404,113.791 131.737,112.791 131.5,111.5C 119.655,111.172 107.988,111.505 96.5,112.5C 96.5,115.167 96.5,117.833 96.5,120.5C 90.8333,120.5 85.1667,120.5 79.5,120.5C 79.5,114.5 79.5,108.5 79.5,102.5C 85.1667,102.5 90.8333,102.5 96.5,102.5C 96.5,104.5 96.5,106.5 96.5,108.5C 108.167,108.5 119.833,108.5 131.5,108.5C 132.461,106.735 132.795,104.735 132.5,102.5C 124.167,102.5 115.833,102.5 107.5,102.5C 107.5,95.5 107.5,88.5 107.5,81.5C 103.629,81.185 99.9619,81.5184 96.5,82.5C 96.5,84.5 96.5,86.5 96.5,88.5C 90.8333,88.5 85.1667,88.5 79.5,88.5C 79.5,82.8333 79.5,77.1667 79.5,71.5C 85.1667,71.5 90.8333,71.5 96.5,71.5C 96.5,73.8333 96.5,76.1667 96.5,78.5C 101.167,78.5 105.833,78.5 110.5,78.5 Z"/></g>
<g><path style="opacity:1" fill="#132744" d="M 31.5,74.5 C 36.8437,74.334 42.1771,74.5006 47.5,75C 48.4438,77.7191 48.7771,80.5525 48.5,83.5C 42.8333,83.5 37.1667,83.5 31.5,83.5C 31.5,80.5 31.5,77.5 31.5,74.5 Z"/></g>
<g><path style="opacity:1" fill="#152945" d="M 179.5,74.5 C 184.833,74.5 190.167,74.5 195.5,74.5C 195.5,77.5 195.5,80.5 195.5,83.5C 190.156,83.666 184.823,83.4994 179.5,83C 178.214,80.1684 178.214,77.3351 179.5,74.5 Z"/></g>
<g><path style="opacity:1" fill="#5f6e81" d="M 96.5,82.5 C 99.9619,81.5184 103.629,81.185 107.5,81.5C 107.5,88.5 107.5,95.5 107.5,102.5C 106.509,96.021 106.176,89.3543 106.5,82.5C 103.167,82.5 99.8333,82.5 96.5,82.5 Z"/></g>
<g><path style="opacity:1" fill="#162945" d="M 31.5,96.5 C 36.8437,96.334 42.1771,96.5006 47.5,97C 48.4438,99.7191 48.7771,102.552 48.5,105.5C 42.8333,105.5 37.1667,105.5 31.5,105.5C 31.5,102.5 31.5,99.5 31.5,96.5 Z"/></g>
<g><path style="opacity:1" fill="#192b47" d="M 179.5,96.5 C 184.833,96.5 190.167,96.5 195.5,96.5C 195.5,99.5 195.5,102.5 195.5,105.5C 189.833,105.5 184.167,105.5 178.5,105.5C 178.264,102.391 178.597,99.3915 179.5,96.5 Z"/></g>
<g><path style="opacity:1" fill="#415269" d="M 110.5,78.5 C 111.491,84.979 111.824,91.6457 111.5,98.5C 118.167,98.5 124.833,98.5 131.5,98.5C 124.687,99.4912 117.687,99.8245 110.5,99.5C 110.5,92.5 110.5,85.5 110.5,78.5 Z"/></g>
<g><path style="opacity:1" fill="#506075" d="M 107.5,102.5 C 115.833,102.5 124.167,102.5 132.5,102.5C 132.795,104.735 132.461,106.735 131.5,108.5C 131.5,106.833 131.5,105.167 131.5,103.5C 123.316,103.826 115.316,103.492 107.5,102.5 Z"/></g>
<g><path style="opacity:1" fill="#c6cbd2" d="M 96.5,112.5 C 107.988,111.505 119.655,111.172 131.5,111.5C 131.737,112.791 131.404,113.791 130.5,114.5C 119.549,112.522 108.216,111.856 96.5,112.5 Z"/></g>
<g><path style="opacity:1" fill="#21314d" d="M 31.5,118.5 C 36.8437,118.334 42.1771,118.501 47.5,119C 48.8333,122 48.8333,125 47.5,128C 42.1771,128.499 36.8437,128.666 31.5,128.5C 31.5,125.167 31.5,121.833 31.5,118.5 Z"/></g>
<g><path style="opacity:1" fill="#23344f" d="M 179.5,118.5 C 184.833,118.5 190.167,118.5 195.5,118.5C 195.5,121.833 195.5,125.167 195.5,128.5C 190.156,128.666 184.823,128.499 179.5,128C 178.208,124.835 178.208,121.668 179.5,118.5 Z"/></g>
<g><path style="opacity:1" fill="#eaecef" d="M 118.5,146.5 C 117.282,145.839 115.949,145.172 114.5,144.5C 117.086,143.52 119.753,143.187 122.5,143.5C 121.533,152.991 116.533,155.825 107.5,152C 102.167,146.333 102.167,140.667 107.5,135C 112.325,132.785 116.825,133.285 121,136.5C 121.601,137.965 121.101,138.965 119.5,139.5C 110.465,134.352 106.632,137.018 108,147.5C 112.166,151.733 115.666,151.399 118.5,146.5 Z"/></g>
<g><path style="opacity:1" fill="#e4e6e9" d="M 79.5,137.5 C 78.5655,138.568 78.2322,139.901 78.5,141.5C 80.8333,141.5 83.1667,141.5 85.5,141.5C 85.5,142.5 85.5,143.5 85.5,144.5C 83.5,144.5 81.5,144.5 79.5,144.5C 79.5,147.5 79.5,150.5 79.5,153.5C 78.1667,153.5 76.8333,153.5 75.5,153.5C 75.5,146.833 75.5,140.167 75.5,133.5C 78.8333,133.5 82.1667,133.5 85.5,133.5C 85.5,134.833 85.5,136.167 85.5,137.5C 83.5,137.5 81.5,137.5 79.5,137.5 Z"/></g>
<g><path style="opacity:1" fill="#eef0f2" d="M 89.5,133.5 C 97.3209,131.833 100.821,134.833 100,142.5C 98.4912,144.919 96.3245,145.919 93.5,145.5C 93.5,148.167 93.5,150.833 93.5,153.5C 92.1667,153.5 90.8333,153.5 89.5,153.5C 89.5,146.833 89.5,140.167 89.5,133.5 Z"/></g>
<g><path style="opacity:1" fill="#eaecee" d="M 132.5,132.5 C 133.376,132.369 134.043,132.702 134.5,133.5C 137.371,140.075 140.371,146.575 143.5,153C 140.186,154.165 138.186,152.998 137.5,149.5C 134.894,148.348 132.227,148.182 129.5,149C 128.733,151.053 127.4,152.553 125.5,153.5C 124.833,153.167 124.167,152.833 123.5,152.5C 127.044,146.079 130.044,139.413 132.5,132.5 Z"/></g>
<g><path style="opacity:1" fill="#152845" d="M 93.5,137.5 C 97.0348,137.337 98.0348,138.67 96.5,141.5C 95.5,141.5 94.5,141.5 93.5,141.5C 93.5,140.167 93.5,138.833 93.5,137.5 Z"/></g>
<g><path style="opacity:1" fill="#8e97a5" d="M 93.5,137.5 C 93.5,138.833 93.5,140.167 93.5,141.5C 94.5,141.5 95.5,141.5 96.5,141.5C 95.4324,142.434 94.099,142.768 92.5,142.5C 92.2155,140.585 92.5489,138.919 93.5,137.5 Z"/></g>
<g><path style="opacity:1" fill="#848f9e" d="M 79.5,137.5 C 79.5,138.5 79.5,139.5 79.5,140.5C 81.7354,140.205 83.7354,140.539 85.5,141.5C 83.1667,141.5 80.8333,141.5 78.5,141.5C 78.2322,139.901 78.5655,138.568 79.5,137.5 Z"/></g>
<g><path style="opacity:1" fill="#142844" d="M 31.5,141.5 C 37.1667,141.5 42.8333,141.5 48.5,141.5C 48.7771,144.448 48.4438,147.281 47.5,150C 42.1771,150.499 36.8437,150.666 31.5,150.5C 31.5,147.5 31.5,144.5 31.5,141.5 Z"/></g>
<g><path style="opacity:1" fill="#e9ebed" d="M 146.5,140.5 C 148.977,140.051 150.977,140.717 152.5,142.5C 152.023,143.478 151.357,144.311 150.5,145C 155.239,150.714 153.905,153.381 146.5,153C 145.643,152.311 144.977,151.478 144.5,150.5C 146.5,150.167 148.5,149.833 150.5,149.5C 145.736,147.993 144.402,144.993 146.5,140.5 Z"/></g>
<g><path style="opacity:1" fill="#172a46" d="M 178.5,141.5 C 184.167,141.5 189.833,141.5 195.5,141.5C 195.5,144.5 195.5,147.5 195.5,150.5C 190.156,150.666 184.823,150.499 179.5,150C 178.556,147.281 178.223,144.448 178.5,141.5 Z"/></g>
<g><path style="opacity:1" fill="#2f4059" d="M 132.5,140.5 C 134.185,141.184 135.185,142.517 135.5,144.5C 134.311,145.429 132.978,145.762 131.5,145.5C 131.629,143.784 131.962,142.117 132.5,140.5 Z"/></g>
<g><path style="opacity:1" fill="#8b96a4" d="M 122.5,143.5 C 119.753,143.187 117.086,143.52 114.5,144.5C 115.949,145.172 117.282,145.839 118.5,146.5C 116.833,146.5 115.167,146.5 113.5,146.5C 113.5,145.167 113.5,143.833 113.5,142.5C 116.713,142.19 119.713,142.523 122.5,143.5 Z"/></g>
<g><path style="opacity:1" fill="#182b47" d="M 74.5,177.5 C 77.1667,177.5 79.8333,177.5 82.5,177.5C 82.5,183.5 82.5,189.5 82.5,195.5C 79.5525,195.777 76.7191,195.444 74,194.5C 73.2153,188.751 73.3819,183.084 74.5,177.5 Z"/></g>
<g><path style="opacity:1" fill="#182b47" d="M 96.5,177.5 C 104.495,175.495 107.495,178.495 105.5,186.5C 107.495,194.505 104.495,197.505 96.5,195.5C 96.5,189.5 96.5,183.5 96.5,177.5 Z"/></g>
<g><path style="opacity:1" fill="#162945" d="M 118.5,177.5 C 126.495,175.495 129.495,178.495 127.5,186.5C 129.495,194.505 126.495,197.505 118.5,195.5C 118.5,189.5 118.5,183.5 118.5,177.5 Z"/></g>
<g><path style="opacity:1" fill="#142844" d="M 141.5,177.5 C 144.119,177.232 146.619,177.565 149,178.5C 149.499,184.157 149.666,189.824 149.5,195.5C 146.5,195.5 143.5,195.5 140.5,195.5C 140.211,189.409 140.545,183.409 141.5,177.5 Z"/></g>
</svg>
