<?xml version="1.0" encoding="UTF-8"?>
<!DOCTYPE svg PUBLIC "-//W3C//DTD SVG 1.1//EN" "http://www.w3.org/Graphics/SVG/1.1/DTD/svg11.dtd">
<svg xmlns="http://www.w3.org/2000/svg" version="1.1" width="512px" height="511px" style="shape-rendering:geometricPrecision; text-rendering:geometricPrecision; image-rendering:optimizeQuality; fill-rule:evenodd; clip-rule:evenodd" xmlns:xlink="http://www.w3.org/1999/xlink">
<g><path style="opacity:0.94" fill="#000000" d="M 213.5,72.5 C 250.487,70.9137 285.154,79.0804 317.5,97C 319.977,98.6427 322.31,100.476 324.5,102.5C 327.526,113.968 323.193,119.134 311.5,118C 255.564,86.1141 199.23,85.4474 142.5,116C 130.263,124.235 118.596,133.235 107.5,143C 99.0005,145.415 94.0005,142.248 92.5,133.5C 92.7628,130.972 93.5961,128.639 95,126.5C 127.917,94.1354 167.417,76.1354 213.5,72.5 Z"/></g>
<g><path style="opacity:0.94" fill="#000000" d="M 223.5,120.5 C 261.955,121.03 294.788,134.697 322,161.5C 323.504,165.039 323.837,168.705 323,172.5C 318.609,178.626 313.109,179.792 306.5,176C 270.735,142.81 229.735,134.144 183.5,150C 167.982,156.254 154.316,165.254 142.5,177C 130.349,179.516 125.516,174.683 128,162.5C 154.224,135.806 186.057,121.806 223.5,120.5 Z"/></g>
<g><path style="opacity:0.895" fill="#000000" d="M 342.5,123.5 C 354.461,121.957 359.295,126.957 357,138.5C 350.667,146.5 344.333,146.5 338,138.5C 336.254,132.342 337.754,127.342 342.5,123.5 Z"/></g>
<g><path style="opacity:0.963" fill="#000000" d="M -0.5,325.5 C -0.5,279.167 -0.5,232.833 -0.5,186.5C 8.34141,162.41 25.3414,153.576 50.5,160C 62.3198,165.154 69.8198,173.987 73,186.5C 73.6667,232.5 73.6667,278.5 73,324.5C 66.0785,347.049 50.9118,356.549 27.5,353C 12.985,348.984 3.65168,339.817 -0.5,325.5 Z M 32.5,178.5 C 41.7555,177.376 48.2555,181.042 52,189.5C 52.6667,233.5 52.6667,277.5 52,321.5C 47.8806,331.31 40.7139,334.81 30.5,332C 24.1504,328.811 20.6504,323.644 20,316.5C 19.3333,276.167 19.3333,235.833 20,195.5C 20.5926,187.09 24.7592,181.424 32.5,178.5 Z"/></g>
<g><path style="opacity:0.95" fill="#000000" d="M 511.5,183.5 C 511.5,188.833 511.5,194.167 511.5,199.5C 503.565,218.316 489.231,226.649 468.5,224.5C 468.667,259.168 468.5,293.835 468,328.5C 463.335,344.494 452.668,353.161 436,354.5C 419.707,353.192 409.04,344.859 404,329.5C 402.541,294.535 402.041,259.535 402.5,224.5C 383.914,226.794 370.414,219.794 362,203.5C 356.124,181.752 363.624,166.918 384.5,159C 418.5,158.333 452.5,158.333 486.5,159C 499.357,162.692 507.691,170.858 511.5,183.5 Z M 388.5,179.5 C 420.168,179.333 451.835,179.5 483.5,180C 489.842,183.362 492.008,188.528 490,195.5C 487.889,199.944 484.389,202.444 479.5,203C 470.833,203.333 462.167,203.667 453.5,204C 451.667,205.167 450.167,206.667 449,208.5C 447.684,247.107 447.018,285.774 447,324.5C 441.201,334.538 434.201,335.538 426,327.5C 425.138,325.913 424.471,324.246 424,322.5C 423.667,284.833 423.333,247.167 423,209.5C 421.833,207 420,205.167 417.5,204C 409.167,203.667 400.833,203.333 392.5,203C 382.689,200.871 379.189,195.038 382,185.5C 383.914,183.144 386.081,181.144 388.5,179.5 Z"/></g>
<g><path style="opacity:0.945" fill="#000000" d="M 220.5,169.5 C 260.342,169.552 288.508,187.552 305,223.5C 319.521,269.926 306.354,306.092 265.5,332C 226.395,349.321 191.562,343.155 161,313.5C 138.494,285.793 133.494,255.126 146,221.5C 161.318,190.432 186.151,173.099 220.5,169.5 Z M 221.5,190.5 C 250.846,191.039 272.013,204.373 285,230.5C 296.371,264.723 287.204,291.89 257.5,312C 227.69,326.503 200.856,322.337 177,299.5C 157.731,275.111 155.398,249.111 170,221.5C 182.535,203.322 199.702,192.989 221.5,190.5 Z M 220.5,239.5 C 237.883,239.613 244.05,247.946 239,264.5C 230.377,274.738 221.377,275.071 212,265.5C 206.211,253.986 209.044,245.319 220.5,239.5 Z"/></g>
<g><path style="opacity:0.944" fill="#000000" d="M 218.5,218.5 C 248.297,218.13 262.797,232.796 262,262.5C 256.995,281.5 244.661,291.834 225,293.5C 202.267,290.934 189.767,278.267 187.5,255.5C 189.654,236.034 199.987,223.701 218.5,218.5 Z M 220.5,239.5 C 209.044,245.319 206.211,253.986 212,265.5C 221.377,275.071 230.377,274.738 239,264.5C 244.05,247.946 237.883,239.613 220.5,239.5 Z"/></g>
<g><path style="opacity:0.94" fill="#000000" d="M 132.5,333.5 C 136.308,333.163 139.974,333.663 143.5,335C 177.941,367.608 217.941,376.942 263.5,363C 270.792,360.238 277.792,356.905 284.5,353C 293.372,347.395 301.706,341.061 309.5,334C 322.693,333.538 326.526,339.371 321,351.5C 278.132,390.085 229.299,399.918 174.5,381C 156.424,373.724 140.924,362.89 128,348.5C 125.766,342.369 127.266,337.369 132.5,333.5 Z"/></g>
<g><path style="opacity:0.89" fill="#000000" d="M 99.5,367.5 C 110.2,367.03 114.7,372.03 113,382.5C 107.15,390.102 100.817,390.435 94,383.5C 91.0478,376.424 92.8811,371.09 99.5,367.5 Z"/></g>
<g><path style="opacity:0.941" fill="#000000" d="M 344.5,367.5 C 356.333,367.844 360.166,373.51 356,384.5C 304.245,433.232 243.745,449.065 174.5,432C 154.798,426.732 136.965,417.899 121,405.5C 117.771,396.347 120.937,391.014 130.5,389.5C 140.75,394.625 151.083,399.792 161.5,405C 230.342,429.698 291.342,417.198 344.5,367.5 Z"/></g>
</svg>
