<?xml version="1.0" encoding="UTF-8"?>
<!DOCTYPE svg PUBLIC "-//W3C//DTD SVG 1.1//EN" "http://www.w3.org/Graphics/SVG/1.1/DTD/svg11.dtd">
<svg xmlns="http://www.w3.org/2000/svg" version="1.1" width="920px" height="557px" style="shape-rendering:geometricPrecision; text-rendering:geometricPrecision; image-rendering:optimizeQuality; fill-rule:evenodd; clip-rule:evenodd" xmlns:xlink="http://www.w3.org/1999/xlink">
<g><path style="opacity:1" fill="#fefefe" d="M -0.5,-0.5 C 144.833,-0.5 290.167,-0.5 435.5,-0.5C 417.718,1.69017 400.052,5.19017 382.5,10C 373.795,12.5079 365.461,15.6746 357.5,19.5C 355.447,19.4021 353.78,20.0687 352.5,21.5C 350.847,21.6596 349.514,22.3263 348.5,23.5C 346.447,23.4021 344.78,24.0687 343.5,25.5C 336.685,28.0726 330.351,31.4059 324.5,35.5C 322.973,35.427 321.973,36.0937 321.5,37.5C 320.508,37.3284 319.842,37.6618 319.5,38.5C 317.973,38.427 316.973,39.0937 316.5,40.5C 310.976,43.0921 305.976,46.4254 301.5,50.5C 299.973,50.427 298.973,51.0937 298.5,52.5C 297.833,52.5 297.5,52.8333 297.5,53.5C 295.973,53.427 294.973,54.0937 294.5,55.5C 293.5,55.8333 292.833,56.5 292.5,57.5C 290.973,57.427 289.973,58.0937 289.5,59.5C 288.5,59.8333 287.833,60.5 287.5,61.5C 285.973,61.427 284.973,62.0937 284.5,63.5C 283.167,64.1667 282.167,65.1667 281.5,66.5C 278.911,67.4194 276.911,69.086 275.5,71.5C 270.167,76.1667 265.167,81.1667 260.5,86.5C 258.086,87.9108 256.419,89.9108 255.5,92.5C 254.167,93.1667 253.167,94.1667 252.5,95.5C 251.094,95.9731 250.427,96.9731 250.5,98.5C 249.5,98.8333 248.833,99.5 248.5,100.5C 247.094,100.973 246.427,101.973 246.5,103.5C 245.5,103.833 244.833,104.5 244.5,105.5C 243.094,105.973 242.427,106.973 242.5,108.5C 241.833,108.5 241.5,108.833 241.5,109.5C 240.094,109.973 239.427,110.973 239.5,112.5C 235.425,116.976 232.092,121.976 229.5,127.5C 228.094,127.973 227.427,128.973 227.5,130.5C 226.662,130.842 226.328,131.508 226.5,132.5C 225.094,132.973 224.427,133.973 224.5,135.5C 220.406,141.351 217.073,147.685 214.5,154.5C 213.069,155.78 212.402,157.447 212.5,159.5C 211.326,160.514 210.66,161.847 210.5,163.5C 209.069,164.78 208.402,166.447 208.5,168.5C 207.069,169.78 206.402,171.447 206.5,173.5C 205.596,174.209 205.263,175.209 205.5,176.5C 204.069,177.78 203.402,179.447 203.5,181.5C 189.428,221.236 184.928,261.902 190,303.5C 192.007,320.389 195.84,336.722 201.5,352.5C 201.259,354.898 201.926,356.898 203.5,358.5C 204.536,364.285 206.536,369.618 209.5,374.5C 209.402,376.553 210.069,378.22 211.5,379.5C 212.326,382.485 213.659,385.151 215.5,387.5C 215.461,390.089 216.461,392.089 218.5,393.5C 219.659,397.151 221.326,400.485 223.5,403.5C 223.427,405.027 224.094,406.027 225.5,406.5C 225.328,407.492 225.662,408.158 226.5,408.5C 226.427,410.027 227.094,411.027 228.5,411.5C 229.383,414.704 231.05,417.371 233.5,419.5C 233.427,421.027 234.094,422.027 235.5,422.5C 235.427,424.027 236.094,425.027 237.5,425.5C 237.738,427.404 238.738,428.738 240.5,429.5C 240.427,431.027 241.094,432.027 242.5,432.5C 242.5,433.167 242.833,433.5 243.5,433.5C 243.427,435.027 244.094,436.027 245.5,436.5C 245.932,437.71 246.599,438.71 247.5,439.5C 247.833,440.5 248.5,441.167 249.5,441.5C 249.833,442.5 250.5,443.167 251.5,443.5C 251.738,445.404 252.738,446.738 254.5,447.5C 255.402,449.341 256.736,450.674 258.5,451.5C 259.08,453.749 260.413,455.415 262.5,456.5C 264.167,458.833 266.167,460.833 268.5,462.5C 269.5,464.167 270.833,465.5 272.5,466.5C 273.585,468.587 275.251,469.92 277.5,470.5C 278.167,472.5 279.5,473.833 281.5,474.5C 282.262,476.262 283.596,477.262 285.5,477.5C 286.167,478.833 287.167,479.833 288.5,480.5C 288.973,481.906 289.973,482.573 291.5,482.5C 294.19,485.185 297.19,487.518 300.5,489.5C 300.973,490.906 301.973,491.573 303.5,491.5C 321.693,505.267 341.693,515.934 363.5,523.5C 364.78,524.931 366.447,525.598 368.5,525.5C 381.694,530.559 395.361,534.225 409.5,536.5C 413.236,537.989 417.236,538.656 421.5,538.5C 460.865,544.649 499.532,541.649 537.5,529.5C 540.152,529.59 542.485,528.924 544.5,527.5C 559.254,523.119 573.254,517.119 586.5,509.5C 588.027,509.573 589.027,508.906 589.5,507.5C 594.827,505.841 599.493,503.174 603.5,499.5C 605.027,499.573 606.027,498.906 606.5,497.5C 608.027,497.573 609.027,496.906 609.5,495.5C 611.027,495.573 612.027,494.906 612.5,493.5C 617.114,490.883 621.447,487.883 625.5,484.5C 626.5,484.167 627.167,483.5 627.5,482.5C 628.167,482.5 628.5,482.167 628.5,481.5C 630.404,481.262 631.738,480.262 632.5,478.5C 633.872,477.488 635.205,476.488 636.5,475.5C 637.833,474.833 638.833,473.833 639.5,472.5C 642.167,471.167 644.167,469.167 645.5,466.5C 649.833,464.167 653.167,460.833 655.5,456.5C 658.5,454.833 660.833,452.5 662.5,449.5C 663.5,449.167 664.167,448.5 664.5,447.5C 665.488,446.205 666.488,444.872 667.5,443.5C 669.262,442.738 670.262,441.404 670.5,439.5C 671.167,439.5 671.5,439.167 671.5,438.5C 672.5,438.167 673.167,437.5 673.5,436.5C 676.323,433.525 678.656,430.192 680.5,426.5C 681.906,426.027 682.573,425.027 682.5,423.5C 683.906,423.027 684.573,422.027 684.5,420.5C 685.906,420.027 686.573,419.027 686.5,417.5C 690.623,412.359 693.956,406.692 696.5,400.5C 697.906,400.027 698.573,399.027 698.5,397.5C 706.119,384.254 712.119,370.254 716.5,355.5C 717.924,353.485 718.59,351.152 718.5,348.5C 730.576,310.574 733.576,272.24 727.5,233.5C 727.72,228.9 727.054,224.567 725.5,220.5C 723.529,206.276 719.862,192.609 714.5,179.5C 714.598,177.447 713.931,175.78 712.5,174.5C 708.505,162.179 703.171,150.512 696.5,139.5C 696.573,137.973 695.906,136.973 694.5,136.5C 690.829,128.481 686.162,121.148 680.5,114.5C 680.573,112.973 679.906,111.973 678.5,111.5C 677.833,111.5 677.5,111.167 677.5,110.5C 677.573,108.973 676.906,107.973 675.5,107.5C 674.876,105.246 673.543,103.579 671.5,102.5C 671.262,100.596 670.262,99.2623 668.5,98.5C 668.167,97.5 667.5,96.8333 666.5,96.5C 666.262,94.5956 665.262,93.2623 663.5,92.5C 662.5,90.8333 661.167,89.5 659.5,88.5C 658.581,85.9108 656.914,83.9108 654.5,82.5C 652.833,80.1667 650.833,78.1667 648.5,76.5C 647.833,75.1667 646.833,74.1667 645.5,73.5C 644.415,71.4131 642.749,70.0798 640.5,69.5C 639.5,67.8333 638.167,66.5 636.5,65.5C 635.738,63.7376 634.404,62.7376 632.5,62.5C 632.167,61.5 631.5,60.8333 630.5,60.5C 630.167,59.5 629.5,58.8333 628.5,58.5C 627.71,57.5987 626.71,56.9321 625.5,56.5C 625.027,55.0937 624.027,54.427 622.5,54.5C 622.5,53.8333 622.167,53.5 621.5,53.5C 621.027,52.0937 620.027,51.427 618.5,51.5C 617.738,49.7376 616.404,48.7376 614.5,48.5C 614.027,47.0937 613.027,46.427 611.5,46.5C 611.027,45.0937 610.027,44.427 608.5,44.5C 606.371,42.0499 603.704,40.3833 600.5,39.5C 600.027,38.0937 599.027,37.427 597.5,37.5C 592.984,34.0734 587.984,31.4068 582.5,29.5C 582.027,28.0937 581.027,27.427 579.5,27.5C 570.234,22.7053 560.567,18.7053 550.5,15.5C 549.22,14.0687 547.553,13.4021 545.5,13.5C 524.048,6.14318 502.048,1.47651 479.5,-0.5C 626.167,-0.5 772.833,-0.5 919.5,-0.5C 919.5,185.167 919.5,370.833 919.5,556.5C 612.833,556.5 306.167,556.5 -0.5,556.5C -0.5,370.833 -0.5,185.167 -0.5,-0.5 Z"/></g>
<g><path style="opacity:1" fill="#326b24" d="M 435.5,-0.5 C 450.167,-0.5 464.833,-0.5 479.5,-0.5C 502.048,1.47651 524.048,6.14318 545.5,13.5C 546.78,14.9313 548.447,15.5979 550.5,15.5C 560.567,18.7053 570.234,22.7053 579.5,27.5C 579.973,28.9063 580.973,29.573 582.5,29.5C 587.984,31.4068 592.984,34.0734 597.5,37.5C 597.973,38.9063 598.973,39.573 600.5,39.5C 603.704,40.3833 606.371,42.0499 608.5,44.5C 608.973,45.9063 609.973,46.573 611.5,46.5C 611.973,47.9063 612.973,48.573 614.5,48.5C 616.404,48.7376 617.738,49.7376 618.5,51.5C 618.973,52.9063 619.973,53.573 621.5,53.5C 622.167,53.5 622.5,53.8333 622.5,54.5C 622.973,55.9063 623.973,56.573 625.5,56.5C 626.71,56.9321 627.71,57.5987 628.5,58.5C 628.062,58.4346 627.728,58.6012 627.5,59C 628.244,60.0386 629.244,60.5386 630.5,60.5C 631.5,60.8333 632.167,61.5 632.5,62.5C 633.262,64.2624 634.596,65.2624 636.5,65.5C 638.167,66.5 639.5,67.8333 640.5,69.5C 641.585,71.5869 643.251,72.9202 645.5,73.5C 645.5,75.5 646.5,76.5 648.5,76.5C 650.833,78.1667 652.833,80.1667 654.5,82.5C 655.419,85.0892 657.086,87.0892 659.5,88.5C 661.167,89.5 662.5,90.8333 663.5,92.5C 663.738,94.4044 664.738,95.7377 666.5,96.5C 667.5,96.8333 668.167,97.5 668.5,98.5C 668.738,100.404 669.738,101.738 671.5,102.5C 673.543,103.579 674.876,105.246 675.5,107.5C 675.427,109.027 676.094,110.027 677.5,110.5C 677.5,111.167 677.833,111.5 678.5,111.5C 678.427,113.027 679.094,114.027 680.5,114.5C 686.162,121.148 690.829,128.481 694.5,136.5C 694.427,138.027 695.094,139.027 696.5,139.5C 703.171,150.512 708.505,162.179 712.5,174.5C 712.402,176.553 713.069,178.22 714.5,179.5C 719.862,192.609 723.529,206.276 725.5,220.5C 725.624,225.049 726.291,229.382 727.5,233.5C 733.576,272.24 730.576,310.574 718.5,348.5C 717.076,350.515 716.41,352.848 716.5,355.5C 712.119,370.254 706.119,384.254 698.5,397.5C 697.094,397.973 696.427,398.973 696.5,400.5C 693.956,406.692 690.623,412.359 686.5,417.5C 685.094,417.973 684.427,418.973 684.5,420.5C 683.094,420.973 682.427,421.973 682.5,423.5C 681.094,423.973 680.427,424.973 680.5,426.5C 678.656,430.192 676.323,433.525 673.5,436.5C 673.565,436.062 673.399,435.728 673,435.5C 671.961,436.244 671.461,437.244 671.5,438.5C 671.5,439.167 671.167,439.5 670.5,439.5C 668.738,440.262 667.738,441.596 667.5,443.5C 666.488,444.872 665.488,446.205 664.5,447.5C 664.565,447.062 664.399,446.728 664,446.5C 662.961,447.244 662.461,448.244 662.5,449.5C 660.833,452.5 658.5,454.833 655.5,456.5C 651.833,459.5 648.5,462.833 645.5,466.5C 644.167,469.167 642.167,471.167 639.5,472.5C 637.804,472.685 636.471,473.519 635.5,475C 635.728,475.399 636.062,475.565 636.5,475.5C 635.205,476.488 633.872,477.488 632.5,478.5C 630.596,478.738 629.262,479.738 628.5,481.5C 628.5,482.167 628.167,482.5 627.5,482.5C 626.761,482.369 626.094,482.536 625.5,483C 624.262,483.69 624.262,484.19 625.5,484.5C 621.447,487.883 617.114,490.883 612.5,493.5C 610.973,493.427 609.973,494.094 609.5,495.5C 607.973,495.427 606.973,496.094 606.5,497.5C 604.973,497.427 603.973,498.094 603.5,499.5C 599.493,503.174 594.827,505.841 589.5,507.5C 587.973,507.427 586.973,508.094 586.5,509.5C 573.254,517.119 559.254,523.119 544.5,527.5C 541.848,527.41 539.515,528.076 537.5,529.5C 499.532,541.649 460.865,544.649 421.5,538.5C 417.733,537.205 413.733,536.539 409.5,536.5C 395.361,534.225 381.694,530.559 368.5,525.5C 367.22,524.069 365.553,523.402 363.5,523.5C 341.693,515.934 321.693,505.267 303.5,491.5C 303.027,490.094 302.027,489.427 300.5,489.5C 297.19,487.518 294.19,485.185 291.5,482.5C 291.027,481.094 290.027,480.427 288.5,480.5C 287.167,479.833 286.167,478.833 285.5,477.5C 284.738,475.738 283.404,474.738 281.5,474.5C 279.5,473.833 278.167,472.5 277.5,470.5C 276.415,468.413 274.749,467.08 272.5,466.5C 272.167,464.167 270.833,462.833 268.5,462.5C 266.167,460.833 264.167,458.833 262.5,456.5C 261.92,454.251 260.587,452.585 258.5,451.5C 256.736,450.674 255.402,449.341 254.5,447.5C 254.262,445.596 253.262,444.262 251.5,443.5C 250.5,443.167 249.833,442.5 249.5,441.5C 249.631,440.761 249.464,440.094 249,439.5C 248.31,438.262 247.81,438.262 247.5,439.5C 246.599,438.71 245.932,437.71 245.5,436.5C 245.573,434.973 244.906,433.973 243.5,433.5C 242.833,433.5 242.5,433.167 242.5,432.5C 242.573,430.973 241.906,429.973 240.5,429.5C 238.738,428.738 237.738,427.404 237.5,425.5C 237.573,423.973 236.906,422.973 235.5,422.5C 235.573,420.973 234.906,419.973 233.5,419.5C 231.05,417.371 229.383,414.704 228.5,411.5C 228.573,409.973 227.906,408.973 226.5,408.5C 225.662,408.158 225.328,407.492 225.5,406.5C 225.573,404.973 224.906,403.973 223.5,403.5C 221.326,400.485 219.659,397.151 218.5,393.5C 218.008,391.181 217.008,389.181 215.5,387.5C 213.659,385.151 212.326,382.485 211.5,379.5C 211.598,377.447 210.931,375.78 209.5,374.5C 206.536,369.618 204.536,364.285 203.5,358.5C 203.405,356.214 202.738,354.214 201.5,352.5C 195.84,336.722 192.007,320.389 190,303.5C 184.928,261.902 189.428,221.236 203.5,181.5C 204.931,180.22 205.598,178.553 205.5,176.5C 205.263,175.209 205.596,174.209 206.5,173.5C 207.931,172.22 208.598,170.553 208.5,168.5C 209.931,167.22 210.598,165.553 210.5,163.5C 210.66,161.847 211.326,160.514 212.5,159.5C 213.931,158.22 214.598,156.553 214.5,154.5C 217.073,147.685 220.406,141.351 224.5,135.5C 225.906,135.027 226.573,134.027 226.5,132.5C 226.328,131.508 226.662,130.842 227.5,130.5C 228.906,130.027 229.573,129.027 229.5,127.5C 232.092,121.976 235.425,116.976 239.5,112.5C 240.906,112.027 241.573,111.027 241.5,109.5C 241.5,108.833 241.833,108.5 242.5,108.5C 243.906,108.027 244.573,107.027 244.5,105.5C 244.833,104.5 245.5,103.833 246.5,103.5C 247.906,103.027 248.573,102.027 248.5,100.5C 248.833,99.5 249.5,98.8333 250.5,98.5C 251.906,98.0269 252.573,97.0269 252.5,95.5C 253.167,94.1667 254.167,93.1667 255.5,92.5C 257.914,91.0892 259.581,89.0892 260.5,86.5C 265.167,81.1667 270.167,76.1667 275.5,71.5C 278.089,70.5806 280.089,68.914 281.5,66.5C 282.167,65.1667 283.167,64.1667 284.5,63.5C 286.027,63.573 287.027,62.9063 287.5,61.5C 287.833,60.5 288.5,59.8333 289.5,59.5C 291.027,59.573 292.027,58.9063 292.5,57.5C 292.833,56.5 293.5,55.8333 294.5,55.5C 296.027,55.573 297.027,54.9063 297.5,53.5C 297.5,52.8333 297.833,52.5 298.5,52.5C 300.027,52.573 301.027,51.9063 301.5,50.5C 305.976,46.4254 310.976,43.0921 316.5,40.5C 318.027,40.573 319.027,39.9063 319.5,38.5C 319.842,37.6618 320.508,37.3284 321.5,37.5C 323.027,37.573 324.027,36.9063 324.5,35.5C 330.351,31.4059 336.685,28.0726 343.5,25.5C 345.553,25.5979 347.22,24.9313 348.5,23.5C 349.514,22.3263 350.847,21.6596 352.5,21.5C 354.553,21.5979 356.22,20.9313 357.5,19.5C 365.461,15.6746 373.795,12.5079 382.5,10C 400.052,5.19017 417.718,1.69017 435.5,-0.5 Z"/></g>
<g><path style="opacity:1" fill="#0c0d0b" d="M 545.5,13.5 C 547.553,13.4021 549.22,14.0687 550.5,15.5C 548.447,15.5979 546.78,14.9313 545.5,13.5 Z"/></g>
<g><path style="opacity:1" fill="#181817" d="M 357.5,19.5 C 356.22,20.9313 354.553,21.5979 352.5,21.5C 353.78,20.0687 355.447,19.4021 357.5,19.5 Z"/></g>
<g><path style="opacity:1" fill="#181817" d="M 348.5,23.5 C 347.22,24.9313 345.553,25.5979 343.5,25.5C 344.78,24.0687 346.447,23.4021 348.5,23.5 Z"/></g>
<g><path style="opacity:1" fill="#040603" d="M 441.5,27.5 C 518.479,23.7059 584.312,50.0392 639,106.5C 686.717,161.947 707.217,224.447 700.5,294C 691.272,375.128 651.938,437.128 582.5,480C 513.093,517.601 442.76,523.268 371.5,497C 296.811,466.107 247.977,411.941 225,334.5C 204.511,251.414 221.844,176.414 277,109.5C 321.199,60.9839 376.032,33.6506 441.5,27.5 Z"/></g>
<g><path style="opacity:1" fill="#161715" d="M 579.5,27.5 C 581.027,27.427 582.027,28.0937 582.5,29.5C 580.973,29.573 579.973,28.9063 579.5,27.5 Z"/></g>
<g><path style="opacity:1" fill="#4a9339" d="M 599.5,79.5 C 581.83,79.3334 564.164,79.5001 546.5,80C 531.667,94.8333 516.833,109.667 502,124.5C 501.172,140.339 501.339,156.005 502.5,171.5C 495.833,172.833 489.167,172.833 482.5,171.5C 482.333,146.164 482.5,120.831 483,95.5C 497.652,87.5365 501.985,75.8699 496,60.5C 487.954,48.4457 477.121,44.9457 463.5,50C 449.454,59.8508 446.62,72.3508 455,87.5C 457.958,91.1453 461.625,93.812 466,95.5C 466.5,120.831 466.667,146.164 466.5,171.5C 460.385,171.937 454.385,171.937 448.5,171.5C 449.663,150.337 449.829,129.004 449,107.5C 427.965,86.632 407.132,65.632 386.5,44.5C 454.335,23.3045 519.668,30.8045 582.5,67C 588.59,70.6995 594.257,74.8661 599.5,79.5 Z"/></g>
<g><path style="opacity:1" fill="#0e100e" d="M 324.5,35.5 C 324.027,36.9063 323.027,37.573 321.5,37.5C 321.973,36.0937 322.973,35.427 324.5,35.5 Z"/></g>
<g><path style="opacity:1" fill="#161715" d="M 597.5,37.5 C 599.027,37.427 600.027,38.0937 600.5,39.5C 598.973,39.573 597.973,38.9063 597.5,37.5 Z"/></g>
<g><path style="opacity:1" fill="#0e100e" d="M 319.5,38.5 C 319.027,39.9063 318.027,40.573 316.5,40.5C 316.973,39.0937 317.973,38.427 319.5,38.5 Z"/></g>
<g><path style="opacity:1" fill="#161715" d="M 608.5,44.5 C 610.027,44.427 611.027,45.0937 611.5,46.5C 609.973,46.573 608.973,45.9063 608.5,44.5 Z"/></g>
<g><path style="opacity:1" fill="#84c671" d="M 386.5,44.5 C 407.132,65.632 427.965,86.632 449,107.5C 449.829,129.004 449.663,150.337 448.5,171.5C 443.1,172.768 437.767,172.768 432.5,171.5C 432.667,152.164 432.5,132.83 432,113.5C 410.965,92.632 390.132,71.632 369.5,50.5C 375.011,48.1073 380.677,46.1073 386.5,44.5 Z"/></g>
<g><path style="opacity:1" fill="#84c671" d="M 482.5,171.5 C 477.167,172.833 471.833,172.833 466.5,171.5C 466.667,146.164 466.5,120.831 466,95.5C 461.625,93.812 457.958,91.1453 455,87.5C 446.62,72.3508 449.454,59.8508 463.5,50C 477.121,44.9457 487.954,48.4457 496,60.5C 501.985,75.8699 497.652,87.5365 483,95.5C 482.5,120.831 482.333,146.164 482.5,171.5 Z"/></g>
<g><path style="opacity:1" fill="#161715" d="M 611.5,46.5 C 613.027,46.427 614.027,47.0937 614.5,48.5C 612.973,48.573 611.973,47.9063 611.5,46.5 Z"/></g>
<g><path style="opacity:1" fill="#0e100e" d="M 301.5,50.5 C 301.027,51.9063 300.027,52.573 298.5,52.5C 298.973,51.0937 299.973,50.427 301.5,50.5 Z"/></g>
<g><path style="opacity:1" fill="#4a9239" d="M 369.5,50.5 C 390.132,71.632 410.965,92.632 432,113.5C 432.5,132.83 432.667,152.164 432.5,171.5C 427.167,172.833 421.833,172.833 416.5,171.5C 416.667,157.163 416.5,142.829 416,128.5C 402.833,115.333 389.667,102.167 376.5,89C 353.502,88.5 330.502,88.3334 307.5,88.5C 325.857,72.3093 346.524,59.6426 369.5,50.5 Z"/></g>
<g><path style="opacity:1" fill="#161715" d="M 618.5,51.5 C 620.027,51.427 621.027,52.0937 621.5,53.5C 619.973,53.573 618.973,52.9063 618.5,51.5 Z"/></g>
<g><path style="opacity:1" fill="#0e100e" d="M 297.5,53.5 C 297.027,54.9063 296.027,55.573 294.5,55.5C 294.973,54.0937 295.973,53.427 297.5,53.5 Z"/></g>
<g><path style="opacity:1" fill="#161715" d="M 622.5,54.5 C 624.027,54.427 625.027,55.0937 625.5,56.5C 623.973,56.573 622.973,55.9063 622.5,54.5 Z"/></g>
<g><path style="opacity:1" fill="#0e100e" d="M 292.5,57.5 C 292.027,58.9063 291.027,59.573 289.5,59.5C 289.973,58.0937 290.973,57.427 292.5,57.5 Z"/></g>
<g><path style="opacity:1" fill="#161715" d="M 628.5,58.5 C 629.5,58.8333 630.167,59.5 630.5,60.5C 629.244,60.5386 628.244,60.0386 627.5,59C 627.728,58.6012 628.062,58.4346 628.5,58.5 Z"/></g>
<g><path style="opacity:1" fill="#4a9239" d="M 472.5,61.5 C 481.844,62.3384 485.678,67.3384 484,76.5C 478.07,84.0125 471.736,84.3458 465,77.5C 462.482,69.5854 464.982,64.2521 472.5,61.5 Z"/></g>
<g><path style="opacity:1" fill="#0e100e" d="M 287.5,61.5 C 287.027,62.9063 286.027,63.573 284.5,63.5C 284.973,62.0937 285.973,61.427 287.5,61.5 Z"/></g>
<g><path style="opacity:1" fill="#232323" d="M 632.5,62.5 C 634.404,62.7376 635.738,63.7376 636.5,65.5C 634.596,65.2624 633.262,64.2624 632.5,62.5 Z"/></g>
<g><path style="opacity:1" fill="#0f110f" d="M 281.5,66.5 C 280.089,68.914 278.089,70.5806 275.5,71.5C 276.911,69.086 278.911,67.4194 281.5,66.5 Z"/></g>
<g><path style="opacity:1" fill="#232423" d="M 640.5,69.5 C 642.749,70.0798 644.415,71.4131 645.5,73.5C 643.251,72.9202 641.585,71.5869 640.5,69.5 Z"/></g>
<g><path style="opacity:1" fill="#030602" d="M 645.5,73.5 C 646.833,74.1667 647.833,75.1667 648.5,76.5C 646.5,76.5 645.5,75.5 645.5,73.5 Z"/></g>
<g><path style="opacity:1" fill="#84c571" d="M 599.5,79.5 C 606.905,83.8745 613.572,89.2078 619.5,95.5C 598.913,96.2459 578.413,96.2459 558,95.5C 556.601,96.2266 555.101,96.7266 553.5,97C 541.667,108.833 529.833,120.667 518,132.5C 517.187,145.575 517.354,158.575 518.5,171.5C 512.713,172.276 507.379,172.276 502.5,171.5C 501.339,156.005 501.172,140.339 502,124.5C 516.833,109.667 531.667,94.8333 546.5,80C 564.164,79.5001 581.83,79.3334 599.5,79.5 Z"/></g>
<g><path style="opacity:1" fill="#191918" d="M 654.5,82.5 C 656.914,83.9108 658.581,85.9108 659.5,88.5C 657.086,87.0892 655.419,85.0892 654.5,82.5 Z"/></g>
<g><path style="opacity:1" fill="#83c571" d="M 307.5,88.5 C 330.502,88.3334 353.502,88.5 376.5,89C 389.667,102.167 402.833,115.333 416,128.5C 416.5,142.829 416.667,157.163 416.5,171.5C 411.223,172.204 405.556,172.204 399.5,171.5C 399.667,159.162 399.5,146.829 399,134.5C 388.971,124.136 378.637,114.136 368,104.5C 341.791,105.291 315.624,105.291 289.5,104.5C 295.197,98.8018 301.197,93.4685 307.5,88.5 Z"/></g>
<g><path style="opacity:1" fill="#171716" d="M 260.5,86.5 C 259.581,89.0892 257.914,91.0892 255.5,92.5C 256.419,89.9108 258.086,87.9108 260.5,86.5 Z"/></g>
<g><path style="opacity:1" fill="#111210" d="M 663.5,92.5 C 665.262,93.2623 666.262,94.5956 666.5,96.5C 664.738,95.7377 663.738,94.4044 663.5,92.5 Z"/></g>
<g><path style="opacity:1" fill="#151514" d="M 252.5,95.5 C 252.573,97.0269 251.906,98.0269 250.5,98.5C 250.427,96.9731 251.094,95.9731 252.5,95.5 Z"/></g>
<g><path style="opacity:1" fill="#4b9339" d="M 619.5,95.5 C 663.34,135.844 688.673,185.844 695.5,245.5C 650.167,245.5 604.833,245.5 559.5,245.5C 559.854,242.039 558.521,239.539 555.5,238C 550.965,236.613 546.299,236.446 541.5,237.5C 541.334,232.156 541.501,226.823 542,221.5C 547.388,220.86 552.554,219.36 557.5,217C 558.305,215.887 558.972,214.721 559.5,213.5C 573.425,212.684 587.425,212.184 601.5,212C 607.833,205.667 614.167,199.333 620.5,193C 630.819,195.26 640.153,193.26 648.5,187C 658.634,173.474 657.634,160.807 645.5,149C 630.406,141.314 618.239,144.481 609,158.5C 605.416,166.75 605.916,174.75 610.5,182.5C 605.682,187.819 600.682,192.985 595.5,198C 583.505,198.5 571.505,198.667 559.5,198.5C 559.262,195.852 557.928,194.018 555.5,193C 551.432,191.658 547.432,191.492 543.5,192.5C 543.634,185.064 541.3,178.564 536.5,173C 530.621,171.59 524.621,171.09 518.5,171.5C 517.354,158.575 517.187,145.575 518,132.5C 529.833,120.667 541.667,108.833 553.5,97C 555.101,96.7266 556.601,96.2266 558,95.5C 578.413,96.2459 598.913,96.2459 619.5,95.5 Z"/></g>
<g><path style="opacity:1" fill="#111210" d="M 668.5,98.5 C 670.262,99.2623 671.262,100.596 671.5,102.5C 669.738,101.738 668.738,100.404 668.5,98.5 Z"/></g>
<g><path style="opacity:1" fill="#151514" d="M 248.5,100.5 C 248.573,102.027 247.906,103.027 246.5,103.5C 246.427,101.973 247.094,100.973 248.5,100.5 Z"/></g>
<g><path style="opacity:1" fill="#151514" d="M 244.5,105.5 C 244.573,107.027 243.906,108.027 242.5,108.5C 242.427,106.973 243.094,105.973 244.5,105.5 Z"/></g>
<g><path style="opacity:1" fill="#4a9239" d="M 289.5,104.5 C 315.624,105.291 341.791,105.291 368,104.5C 378.637,114.136 388.971,124.136 399,134.5C 399.5,146.829 399.667,159.162 399.5,171.5C 392.148,169.665 384.814,170.499 377.5,174C 374.829,179.486 373.829,185.32 374.5,191.5C 366.474,190.156 360.474,192.823 356.5,199.5C 349.492,199.666 342.492,199.5 335.5,199C 328.667,192.167 321.833,185.333 315,178.5C 316.089,174.913 317.422,171.246 319,167.5C 320.194,148.027 311.027,138.193 291.5,138C 272.346,144.146 266.513,156.646 274,175.5C 281.268,184.81 290.601,188.144 302,185.5C 311.167,194.667 320.333,203.833 329.5,213C 338.91,213.193 348.244,213.693 357.5,214.5C 358.596,216.103 359.93,217.603 361.5,219C 366.155,219.499 370.821,219.666 375.5,219.5C 375.666,224.844 375.499,230.177 375,235.5C 370.035,236.018 365.202,237.184 360.5,239C 358.779,240.944 357.446,243.11 356.5,245.5C 339.163,245.667 321.83,245.5 304.5,245C 282.965,223.298 261.299,201.798 239.5,180.5C 251.187,151.766 267.853,126.433 289.5,104.5 Z"/></g>
<g><path style="opacity:1" fill="#151514" d="M 675.5,107.5 C 676.906,107.973 677.573,108.973 677.5,110.5C 676.094,110.027 675.427,109.027 675.5,107.5 Z"/></g>
<g><path style="opacity:1" fill="#151514" d="M 241.5,109.5 C 241.573,111.027 240.906,112.027 239.5,112.5C 239.427,110.973 240.094,109.973 241.5,109.5 Z"/></g>
<g><path style="opacity:1" fill="#151514" d="M 678.5,111.5 C 679.906,111.973 680.573,112.973 680.5,114.5C 679.094,114.027 678.427,113.027 678.5,111.5 Z"/></g>
<g><path style="opacity:1" fill="#151514" d="M 229.5,127.5 C 229.573,129.027 228.906,130.027 227.5,130.5C 227.427,128.973 228.094,127.973 229.5,127.5 Z"/></g>
<g><path style="opacity:1" fill="#151514" d="M 226.5,132.5 C 226.573,134.027 225.906,135.027 224.5,135.5C 224.427,133.973 225.094,132.973 226.5,132.5 Z"/></g>
<g><path style="opacity:1" fill="#151514" d="M 694.5,136.5 C 695.906,136.973 696.573,137.973 696.5,139.5C 695.094,139.027 694.427,138.027 694.5,136.5 Z"/></g>
<g><path style="opacity:1" fill="#84c671" d="M 356.5,199.5 C 356.337,204.547 356.671,209.547 357.5,214.5C 348.244,213.693 338.91,213.193 329.5,213C 320.333,203.833 311.167,194.667 302,185.5C 290.601,188.144 281.268,184.81 274,175.5C 266.513,156.646 272.346,144.146 291.5,138C 311.027,138.193 320.194,148.027 319,167.5C 317.422,171.246 316.089,174.913 315,178.5C 321.833,185.333 328.667,192.167 335.5,199C 342.492,199.5 349.492,199.666 356.5,199.5 Z"/></g>
<g><path style="opacity:1" fill="#84c671" d="M 559.5,213.5 C 559.5,208.5 559.5,203.5 559.5,198.5C 571.505,198.667 583.505,198.5 595.5,198C 600.682,192.985 605.682,187.819 610.5,182.5C 605.916,174.75 605.416,166.75 609,158.5C 618.239,144.481 630.406,141.314 645.5,149C 657.634,160.807 658.634,173.474 648.5,187C 640.153,193.26 630.819,195.26 620.5,193C 614.167,199.333 607.833,205.667 601.5,212C 587.425,212.184 573.425,212.684 559.5,213.5 Z"/></g>
<g><path style="opacity:1" fill="#4a9239" d="M 293.5,151.5 C 304.318,153.469 307.485,159.469 303,169.5C 295.5,174.525 289.5,173.191 285,165.5C 284.038,158.41 286.871,153.743 293.5,151.5 Z"/></g>
<g><path style="opacity:1" fill="#1a1b1a" d="M 214.5,154.5 C 214.598,156.553 213.931,158.22 212.5,159.5C 212.402,157.447 213.069,155.78 214.5,154.5 Z"/></g>
<g><path style="opacity:1" fill="#4a9239" d="M 629.5,158.5 C 640.843,160.186 644.01,166.186 639,176.5C 634.45,180.087 629.616,180.42 624.5,177.5C 618.244,169.026 619.91,162.693 629.5,158.5 Z"/></g>
<g><path style="opacity:1" fill="#1a1b1a" d="M 210.5,163.5 C 210.598,165.553 209.931,167.22 208.5,168.5C 208.402,166.447 209.069,164.78 210.5,163.5 Z"/></g>
<g><path style="opacity:1" fill="#111211" d="M 208.5,168.5 C 208.598,170.553 207.931,172.22 206.5,173.5C 206.402,171.447 207.069,169.78 208.5,168.5 Z"/></g>
<g><path style="opacity:1" fill="#060805" d="M 399.5,171.5 C 405.556,172.204 411.223,172.204 416.5,171.5C 421.833,172.833 427.167,172.833 432.5,171.5C 437.767,172.768 443.1,172.768 448.5,171.5C 454.385,171.937 460.385,171.937 466.5,171.5C 471.833,172.833 477.167,172.833 482.5,171.5C 489.167,172.833 495.833,172.833 502.5,171.5C 507.379,172.276 512.713,172.276 518.5,171.5C 524.621,171.09 530.621,171.59 536.5,173C 541.3,178.564 543.634,185.064 543.5,192.5C 547.432,191.492 551.432,191.658 555.5,193C 557.928,194.018 559.262,195.852 559.5,198.5C 559.5,203.5 559.5,208.5 559.5,213.5C 558.972,214.721 558.305,215.887 557.5,217C 552.554,219.36 547.388,220.86 542,221.5C 541.501,226.823 541.334,232.156 541.5,237.5C 546.299,236.446 550.965,236.613 555.5,238C 558.521,239.539 559.854,242.039 559.5,245.5C 559.5,250.167 559.5,254.833 559.5,259.5C 558.146,261.696 556.146,263.196 553.5,264C 549.886,264.945 546.219,265.612 542.5,266C 541.365,270.748 541.198,275.581 542,280.5C 546.84,279.15 551.673,279.316 556.5,281C 558.16,282.488 559.16,284.321 559.5,286.5C 559.5,291.5 559.5,296.5 559.5,301.5C 558.354,303.475 556.687,304.975 554.5,306C 550.246,307.265 545.912,308.098 541.5,308.5C 541.5,312.833 541.5,317.167 541.5,321.5C 544.616,321.289 547.45,320.955 550,320.5C 552.8,321.128 555.467,322.128 558,323.5C 558.791,324.745 559.291,326.078 559.5,327.5C 559.5,332.167 559.5,336.833 559.5,341.5C 559.089,345.079 557.089,347.246 553.5,348C 549.886,348.936 546.22,349.436 542.5,349.5C 542.997,367.617 534.33,374.284 516.5,369.5C 511.833,369.5 507.167,369.5 502.5,369.5C 496.5,369.5 490.5,369.5 484.5,369.5C 478.833,369.5 473.167,369.5 467.5,369.5C 462.167,369.5 456.833,369.5 451.5,369.5C 445.833,369.5 440.167,369.5 434.5,369.5C 428.833,369.5 423.167,369.5 417.5,369.5C 412.5,369.5 407.5,369.5 402.5,369.5C 394.747,369.896 387.08,369.396 379.5,368C 376.301,364.885 374.634,361.052 374.5,356.5C 375.269,353.885 375.603,351.219 375.5,348.5C 370.821,348.666 366.155,348.499 361.5,348C 359.93,346.603 358.596,345.103 357.5,343.5C 356.27,338.122 356.27,332.789 357.5,327.5C 358.277,324.888 359.944,323.055 362.5,322C 366.474,321.004 370.474,320.171 374.5,319.5C 375.491,315.555 375.824,311.555 375.5,307.5C 371.699,306.371 368.199,306.371 365,307.5C 361.108,307.097 358.608,305.097 357.5,301.5C 356.167,296.167 356.167,290.833 357.5,285.5C 359.004,283.164 361.004,281.331 363.5,280C 367.44,278.985 371.44,278.485 375.5,278.5C 375.5,273.833 375.5,269.167 375.5,264.5C 370.821,264.666 366.155,264.499 361.5,264C 359.807,262.75 358.473,261.25 357.5,259.5C 356.686,254.881 356.353,250.214 356.5,245.5C 357.446,243.11 358.779,240.944 360.5,239C 365.202,237.184 370.035,236.018 375,235.5C 375.499,230.177 375.666,224.844 375.5,219.5C 370.821,219.666 366.155,219.499 361.5,219C 359.93,217.603 358.596,216.103 357.5,214.5C 356.671,209.547 356.337,204.547 356.5,199.5C 360.474,192.823 366.474,190.156 374.5,191.5C 373.829,185.32 374.829,179.486 377.5,174C 384.814,170.499 392.148,169.665 399.5,171.5 Z"/></g>
<g><path style="opacity:1" fill="#111211" d="M 712.5,174.5 C 713.931,175.78 714.598,177.447 714.5,179.5C 713.069,178.22 712.402,176.553 712.5,174.5 Z"/></g>
<g><path style="opacity:1" fill="#444344" d="M 386.5,175.5 C 396.485,175.632 405.985,175.632 415,175.5C 418.333,176.167 421.667,176.833 425,177.5C 458.752,176.891 492.752,176.558 527,176.5C 535.524,175.819 539.358,179.653 538.5,188C 537.262,235.938 537.262,283.605 538.5,331C 538.333,337.5 538.167,344 538,350.5C 537.683,354.939 536.516,359.105 534.5,363C 533.584,363.374 532.75,363.874 532,364.5C 484.914,363.661 437.914,363.661 391,364.5C 381.21,363.464 377.043,357.964 378.5,348C 379.449,298.353 379.782,248.353 379.5,198C 377.769,191.484 377.603,185.318 379,179.5C 381.255,177.501 383.755,176.168 386.5,175.5 Z"/></g>
<g><path style="opacity:1" fill="#111211" d="M 205.5,176.5 C 205.598,178.553 204.931,180.22 203.5,181.5C 203.402,179.447 204.069,177.78 205.5,176.5 Z"/></g>
<g><path style="opacity:1" fill="#84c571" d="M 239.5,180.5 C 261.299,201.798 282.965,223.298 304.5,245C 321.83,245.5 339.163,245.667 356.5,245.5C 356.353,250.214 356.686,254.881 357.5,259.5C 337.831,259.667 318.164,259.5 298.5,259C 276.965,237.632 255.632,216.132 234.5,194.5C 235.774,189.677 237.441,185.01 239.5,180.5 Z"/></g>
<g><path style="opacity:1" fill="#030602" d="M 433.5,189.5 C 447.222,205.667 462.056,207.667 478,195.5C 478.167,195.833 478.333,196.167 478.5,196.5C 475.12,200.527 470.786,203.027 465.5,204C 452.546,206.684 442.046,202.851 434,192.5C 433.517,191.552 433.351,190.552 433.5,189.5 Z"/></g>
<g><path style="opacity:1" fill="#cbccca" d="M 543.5,195.5 C 546.146,195.892 548.646,195.892 551,195.5C 552.333,196.167 553.667,196.833 555,197.5C 555.554,200.658 556.054,203.825 556.5,207C 556.047,213.444 552.547,216.277 546,215.5C 544.5,215.167 543,214.833 541.5,214.5C 542.654,207.953 543.32,201.619 543.5,195.5 Z"/></g>
<g><path style="opacity:1" fill="#cacbca" d="M 372.5,195.5 C 374.117,196.589 374.95,198.256 375,200.5C 375.499,205.823 375.666,211.156 375.5,216.5C 371.486,216.666 367.486,216.499 363.5,216C 358.441,209.31 358.275,202.81 363,196.5C 363.414,196.957 363.914,197.291 364.5,197.5C 367.311,196.92 369.977,196.254 372.5,195.5 Z"/></g>
<g><path style="opacity:1" fill="#4a9239" d="M 234.5,194.5 C 255.632,216.132 276.965,237.632 298.5,259C 318.164,259.5 337.831,259.667 357.5,259.5C 358.473,261.25 359.807,262.75 361.5,264C 366.155,264.499 370.821,264.666 375.5,264.5C 375.5,269.167 375.5,273.833 375.5,278.5C 371.44,278.485 367.44,278.985 363.5,280C 361.004,281.331 359.004,283.164 357.5,285.5C 334.164,285.667 310.831,285.5 287.5,285C 276.09,269.115 262.59,266.948 247,278.5C 237.696,291.354 238.529,303.521 249.5,315C 266.725,324.428 279.725,320.428 288.5,303C 311.67,302.832 334.67,302.332 357.5,301.5C 358.608,305.097 361.108,307.097 365,307.5C 368.199,306.371 371.699,306.371 375.5,307.5C 375.824,311.555 375.491,315.555 374.5,319.5C 370.474,320.171 366.474,321.004 362.5,322C 359.944,323.055 358.277,324.888 357.5,327.5C 342.83,327.333 328.163,327.5 313.5,328C 293.298,348.035 273.298,368.201 253.5,388.5C 222.764,333.504 214.264,275.837 228,215.5C 229.725,208.242 231.891,201.242 234.5,194.5 Z"/></g>
<g><path style="opacity:1" fill="#1d201c" d="M 725.5,220.5 C 727.054,224.567 727.72,228.9 727.5,233.5C 726.291,229.382 725.624,225.049 725.5,220.5 Z"/></g>
<g><path style="opacity:1" fill="#cacaca" d="M 541.5,240.5 C 545.897,240.425 550.23,240.925 554.5,242C 560.08,255.368 555.747,261.534 541.5,260.5C 541.5,253.833 541.5,247.167 541.5,240.5 Z"/></g>
<g><path style="opacity:1" fill="#cacbca" d="M 372.5,240.5 C 373.5,240.5 374.5,240.5 375.5,240.5C 375.5,247.5 375.5,254.5 375.5,261.5C 371.486,261.666 367.486,261.499 363.5,261C 361.257,257.33 359.924,253.33 359.5,249C 360.24,247.215 360.907,245.382 361.5,243.5C 365.213,242.222 368.88,241.222 372.5,240.5 Z"/></g>
<g><path style="opacity:1" fill="#84c671" d="M 559.5,245.5 C 604.833,245.5 650.167,245.5 695.5,245.5C 696.229,250.13 696.563,254.797 696.5,259.5C 650.833,259.5 605.167,259.5 559.5,259.5C 559.5,254.833 559.5,250.167 559.5,245.5 Z"/></g>
<g><path style="opacity:1" fill="#4a9239" d="M 559.5,259.5 C 605.167,259.5 650.833,259.5 696.5,259.5C 697.811,282.687 695.478,305.353 689.5,327.5C 676.16,313.327 662.327,299.66 648,286.5C 618.561,287.622 589.061,287.622 559.5,286.5C 559.16,284.321 558.16,282.488 556.5,281C 551.673,279.316 546.84,279.15 542,280.5C 541.198,275.581 541.365,270.748 542.5,266C 546.219,265.612 549.886,264.945 553.5,264C 556.146,263.196 558.146,261.696 559.5,259.5 Z"/></g>
<g><path style="opacity:1" fill="#84c671" d="M 357.5,285.5 C 356.167,290.833 356.167,296.167 357.5,301.5C 334.67,302.332 311.67,302.832 288.5,303C 279.725,320.428 266.725,324.428 249.5,315C 238.529,303.521 237.696,291.354 247,278.5C 262.59,266.948 276.09,269.115 287.5,285C 310.831,285.5 334.164,285.667 357.5,285.5 Z"/></g>
<g><path style="opacity:1" fill="#cacbca" d="M 368.5,283.5 C 370.833,283.5 373.167,283.5 375.5,283.5C 375.5,290.5 375.5,297.5 375.5,304.5C 370.817,304.814 366.317,304.148 362,302.5C 359.844,296.537 360.01,290.704 362.5,285C 364.708,284.809 366.708,284.309 368.5,283.5 Z"/></g>
<g><path style="opacity:1" fill="#cacac9" d="M 541.5,283.5 C 545.514,283.334 549.514,283.501 553.5,284C 554.672,284.419 555.672,285.085 556.5,286C 555.624,288.579 555.624,291.246 556.5,294C 556.435,296.526 555.768,298.859 554.5,301C 551.361,302.018 548.195,302.851 545,303.5C 544,303.167 543,302.833 542,302.5C 541.5,296.175 541.334,289.842 541.5,283.5 Z"/></g>
<g><path style="opacity:1" fill="#4a9239" d="M 260.5,285.5 C 268.732,284.075 273.732,287.408 275.5,295.5C 274.104,304.204 269.104,307.37 260.5,305C 254.975,302.081 253.142,297.581 255,291.5C 256.36,288.977 258.193,286.977 260.5,285.5 Z"/></g>
<g><path style="opacity:1" fill="#83c470" d="M 559.5,286.5 C 589.061,287.622 618.561,287.622 648,286.5C 662.327,299.66 676.16,313.327 689.5,327.5C 688.632,332.64 687.299,337.64 685.5,342.5C 671.201,328.702 657.035,314.702 643,300.5C 615.193,300.556 587.359,300.889 559.5,301.5C 559.5,296.5 559.5,291.5 559.5,286.5 Z"/></g>
<g><path style="opacity:1" fill="#4a9239" d="M 685.5,342.5 C 680.366,359.093 673.366,374.76 664.5,389.5C 644.368,368.868 624.035,348.368 603.5,328C 588.837,327.5 574.17,327.333 559.5,327.5C 559.291,326.078 558.791,324.745 558,323.5C 555.467,322.128 552.8,321.128 550,320.5C 547.45,320.955 544.616,321.289 541.5,321.5C 541.5,317.167 541.5,312.833 541.5,308.5C 545.912,308.098 550.246,307.265 554.5,306C 556.687,304.975 558.354,303.475 559.5,301.5C 587.359,300.889 615.193,300.556 643,300.5C 657.035,314.702 671.201,328.702 685.5,342.5 Z"/></g>
<g><path style="opacity:1" fill="#cbcbca" d="M 541.5,324.5 C 546.181,324.669 550.848,325.002 555.5,325.5C 555.457,328.867 555.79,332.201 556.5,335.5C 556.349,341.982 553.016,344.982 546.5,344.5C 545.167,344.333 543.833,344.167 542.5,344C 542.833,343.667 543.167,343.333 543.5,343C 542.52,336.681 541.853,330.515 541.5,324.5 Z"/></g>
<g><path style="opacity:1" fill="#cbcbca" d="M 370.5,324.5 C 371.973,325.071 373.64,325.071 375.5,324.5C 375.5,331.5 375.5,338.5 375.5,345.5C 371.033,345.867 366.7,345.367 362.5,344C 358.527,337.985 358.527,331.985 362.5,326C 365.202,326.228 367.868,325.728 370.5,324.5 Z"/></g>
<g><path style="opacity:1" fill="#84c671" d="M 357.5,327.5 C 356.27,332.789 356.27,338.122 357.5,343.5C 346.496,344.495 335.329,344.495 324,343.5C 322.601,344.227 321.101,344.727 319.5,345C 300.298,364.035 281.298,383.201 262.5,402.5C 259.015,398.21 256.015,393.543 253.5,388.5C 273.298,368.201 293.298,348.035 313.5,328C 328.163,327.5 342.83,327.333 357.5,327.5 Z"/></g>
<g><path style="opacity:1" fill="#85c772" d="M 559.5,327.5 C 574.17,327.333 588.837,327.5 603.5,328C 624.035,348.368 644.368,368.868 664.5,389.5C 662.316,393.881 659.65,397.881 656.5,401.5C 637.035,381.535 617.368,361.701 597.5,342C 584.838,341.5 572.171,341.333 559.5,341.5C 559.5,336.833 559.5,332.167 559.5,327.5 Z"/></g>
<g><path style="opacity:1" fill="#4a9239" d="M 559.5,341.5 C 572.171,341.333 584.838,341.5 597.5,342C 617.368,361.701 637.035,381.535 656.5,401.5C 630.738,440.562 596.404,469.562 553.5,488.5C 553.631,487.761 553.464,487.094 553,486.5C 530.028,464.528 507.361,442.195 485,419.5C 484.5,402.837 484.333,386.17 484.5,369.5C 490.5,369.5 496.5,369.5 502.5,369.5C 502.334,378.173 502.5,386.84 503,395.5C 512.167,404.667 521.333,413.833 530.5,423C 543.846,423.167 557.179,423.667 570.5,424.5C 579.272,440.698 591.939,444.532 608.5,436C 621.462,423.31 621.796,410.31 609.5,397C 596.383,388.642 584.55,390.142 574,401.5C 572.519,404.11 571.352,406.777 570.5,409.5C 559.162,409.667 547.828,409.5 536.5,409C 530,402.5 523.5,396 517,389.5C 516.5,382.842 516.334,376.175 516.5,369.5C 534.33,374.284 542.997,367.617 542.5,349.5C 546.22,349.436 549.886,348.936 553.5,348C 557.089,347.246 559.089,345.079 559.5,341.5 Z"/></g>
<g><path style="opacity:1" fill="#4a9239" d="M 357.5,343.5 C 358.596,345.103 359.93,346.603 361.5,348C 366.155,348.499 370.821,348.666 375.5,348.5C 375.603,351.219 375.269,353.885 374.5,356.5C 374.634,361.052 376.301,364.885 379.5,368C 387.08,369.396 394.747,369.896 402.5,369.5C 402.666,379.506 402.5,389.506 402,399.5C 391.167,410.333 380.333,421.167 369.5,432C 341.835,432.5 314.169,432.667 286.5,432.5C 282.169,429.002 278.336,425.002 275,420.5C 270.198,414.878 266.031,408.878 262.5,402.5C 281.298,383.201 300.298,364.035 319.5,345C 321.101,344.727 322.601,344.227 324,343.5C 335.329,344.495 346.496,344.495 357.5,343.5 Z"/></g>
<g><path style="opacity:1" fill="#151514" d="M 718.5,348.5 C 718.59,351.152 717.924,353.485 716.5,355.5C 716.41,352.848 717.076,350.515 718.5,348.5 Z"/></g>
<g><path style="opacity:1" fill="#111210" d="M 201.5,352.5 C 202.738,354.214 203.405,356.214 203.5,358.5C 201.926,356.898 201.259,354.898 201.5,352.5 Z"/></g>
<g><path style="opacity:1" fill="#84c671" d="M 402.5,369.5 C 407.5,369.5 412.5,369.5 417.5,369.5C 416.687,381.425 416.187,393.425 416,405.5C 402.5,419 389,432.5 375.5,446C 350.502,446.5 325.502,446.667 300.5,446.5C 295.167,442.5 290.5,437.833 286.5,432.5C 314.169,432.667 341.835,432.5 369.5,432C 380.333,421.167 391.167,410.333 402,399.5C 402.5,389.506 402.666,379.506 402.5,369.5 Z"/></g>
<g><path style="opacity:1" fill="#4a9239" d="M 417.5,369.5 C 423.167,369.5 428.833,369.5 434.5,369.5C 434.833,395.509 434.5,421.509 433.5,447.5C 420.494,454.518 415.994,465.185 420,479.5C 429.014,495.076 441.514,498.576 457.5,490C 468.884,479.426 470.384,467.593 462,454.5C 459.191,451.428 455.858,449.095 452,447.5C 451.5,421.502 451.333,395.502 451.5,369.5C 456.833,369.5 462.167,369.5 467.5,369.5C 467.333,388.503 467.5,407.503 468,426.5C 490.728,449.395 513.562,472.062 536.5,494.5C 454.279,520.906 378.613,507.739 309.5,455C 306.604,451.934 303.604,449.101 300.5,446.5C 325.502,446.667 350.502,446.5 375.5,446C 389,432.5 402.5,419 416,405.5C 416.187,393.425 416.687,381.425 417.5,369.5 Z"/></g>
<g><path style="opacity:1" fill="#84c571" d="M 434.5,369.5 C 440.167,369.5 445.833,369.5 451.5,369.5C 451.333,395.502 451.5,421.502 452,447.5C 455.858,449.095 459.191,451.428 462,454.5C 470.384,467.593 468.884,479.426 457.5,490C 441.514,498.576 429.014,495.076 420,479.5C 415.994,465.185 420.494,454.518 433.5,447.5C 434.5,421.509 434.833,395.509 434.5,369.5 Z"/></g>
<g><path style="opacity:1" fill="#84c671" d="M 467.5,369.5 C 473.167,369.5 478.833,369.5 484.5,369.5C 484.333,386.17 484.5,402.837 485,419.5C 507.361,442.195 530.028,464.528 553,486.5C 553.464,487.094 553.631,487.761 553.5,488.5C 547.978,490.896 542.311,492.896 536.5,494.5C 513.562,472.062 490.728,449.395 468,426.5C 467.5,407.503 467.333,388.503 467.5,369.5 Z"/></g>
<g><path style="opacity:1" fill="#84c671" d="M 502.5,369.5 C 507.167,369.5 511.833,369.5 516.5,369.5C 516.334,376.175 516.5,382.842 517,389.5C 523.5,396 530,402.5 536.5,409C 547.828,409.5 559.162,409.667 570.5,409.5C 571.352,406.777 572.519,404.11 574,401.5C 584.55,390.142 596.383,388.642 609.5,397C 621.796,410.31 621.462,423.31 608.5,436C 591.939,444.532 579.272,440.698 570.5,424.5C 557.179,423.667 543.846,423.167 530.5,423C 521.333,413.833 512.167,404.667 503,395.5C 502.5,386.84 502.334,378.173 502.5,369.5 Z"/></g>
<g><path style="opacity:1" fill="#181817" d="M 209.5,374.5 C 210.931,375.78 211.598,377.447 211.5,379.5C 210.069,378.22 209.402,376.553 209.5,374.5 Z"/></g>
<g><path style="opacity:1" fill="#151514" d="M 215.5,387.5 C 217.008,389.181 218.008,391.181 218.5,393.5C 216.461,392.089 215.461,390.089 215.5,387.5 Z"/></g>
<g><path style="opacity:1" fill="#232322" d="M 698.5,397.5 C 698.573,399.027 697.906,400.027 696.5,400.5C 696.427,398.973 697.094,397.973 698.5,397.5 Z"/></g>
<g><path style="opacity:1" fill="#161715" d="M 223.5,403.5 C 224.906,403.973 225.573,404.973 225.5,406.5C 224.094,406.027 223.427,405.027 223.5,403.5 Z"/></g>
<g><path style="opacity:1" fill="#4a9239" d="M 591.5,405.5 C 601.966,406.106 605.8,411.439 603,421.5C 596.264,428.346 589.93,428.013 584,420.5C 582.289,413.254 584.789,408.254 591.5,405.5 Z"/></g>
<g><path style="opacity:1" fill="#161715" d="M 226.5,408.5 C 227.906,408.973 228.573,409.973 228.5,411.5C 227.094,411.027 226.427,410.027 226.5,408.5 Z"/></g>
<g><path style="opacity:1" fill="#232322" d="M 686.5,417.5 C 686.573,419.027 685.906,420.027 684.5,420.5C 684.427,418.973 685.094,417.973 686.5,417.5 Z"/></g>
<g><path style="opacity:1" fill="#161715" d="M 233.5,419.5 C 234.906,419.973 235.573,420.973 235.5,422.5C 234.094,422.027 233.427,421.027 233.5,419.5 Z"/></g>
<g><path style="opacity:1" fill="#232322" d="M 684.5,420.5 C 684.573,422.027 683.906,423.027 682.5,423.5C 682.427,421.973 683.094,420.973 684.5,420.5 Z"/></g>
<g><path style="opacity:1" fill="#161715" d="M 235.5,422.5 C 236.906,422.973 237.573,423.973 237.5,425.5C 236.094,425.027 235.427,424.027 235.5,422.5 Z"/></g>
<g><path style="opacity:1" fill="#232322" d="M 682.5,423.5 C 682.573,425.027 681.906,426.027 680.5,426.5C 680.427,424.973 681.094,423.973 682.5,423.5 Z"/></g>
<g><path style="opacity:1" fill="#161715" d="M 240.5,429.5 C 241.906,429.973 242.573,430.973 242.5,432.5C 241.094,432.027 240.427,431.027 240.5,429.5 Z"/></g>
<g><path style="opacity:1" fill="#161715" d="M 243.5,433.5 C 244.906,433.973 245.573,434.973 245.5,436.5C 244.094,436.027 243.427,435.027 243.5,433.5 Z"/></g>
<g><path style="opacity:1" fill="#232322" d="M 673.5,436.5 C 673.167,437.5 672.5,438.167 671.5,438.5C 671.461,437.244 671.961,436.244 673,435.5C 673.399,435.728 673.565,436.062 673.5,436.5 Z"/></g>
<g><path style="opacity:1" fill="#161715" d="M 249.5,441.5 C 248.5,441.167 247.833,440.5 247.5,439.5C 247.81,438.262 248.31,438.262 249,439.5C 249.464,440.094 249.631,440.761 249.5,441.5 Z"/></g>
<g><path style="opacity:1" fill="#232323" d="M 670.5,439.5 C 670.262,441.404 669.262,442.738 667.5,443.5C 667.738,441.596 668.738,440.262 670.5,439.5 Z"/></g>
<g><path style="opacity:1" fill="#232323" d="M 251.5,443.5 C 253.262,444.262 254.262,445.596 254.5,447.5C 252.738,446.738 251.738,445.404 251.5,443.5 Z"/></g>
<g><path style="opacity:1" fill="#232322" d="M 664.5,447.5 C 664.167,448.5 663.5,449.167 662.5,449.5C 662.461,448.244 662.961,447.244 664,446.5C 664.399,446.728 664.565,447.062 664.5,447.5 Z"/></g>
<g><path style="opacity:1" fill="#232423" d="M 258.5,451.5 C 260.587,452.585 261.92,454.251 262.5,456.5C 260.413,455.415 259.08,453.749 258.5,451.5 Z"/></g>
<g><path style="opacity:1" fill="#4a9239" d="M 440.5,459.5 C 451.677,460.529 455.177,466.196 451,476.5C 444.306,482.211 438.306,481.544 433,474.5C 431.289,467.254 433.789,462.254 440.5,459.5 Z"/></g>
<g><path style="opacity:1" fill="#2f2f2f" d="M 655.5,456.5 C 653.167,460.833 649.833,464.167 645.5,466.5C 648.5,462.833 651.833,459.5 655.5,456.5 Z"/></g>
<g><path style="opacity:1" fill="#030602" d="M 268.5,462.5 C 270.833,462.833 272.167,464.167 272.5,466.5C 270.833,465.5 269.5,464.167 268.5,462.5 Z"/></g>
<g><path style="opacity:1" fill="#1c1d1c" d="M 272.5,466.5 C 274.749,467.08 276.415,468.413 277.5,470.5C 275.251,469.92 273.585,468.587 272.5,466.5 Z"/></g>
<g><path style="opacity:1" fill="#121312" d="M 639.5,472.5 C 638.833,473.833 637.833,474.833 636.5,475.5C 636.062,475.565 635.728,475.399 635.5,475C 636.471,473.519 637.804,472.685 639.5,472.5 Z"/></g>
<g><path style="opacity:1" fill="#111210" d="M 281.5,474.5 C 283.404,474.738 284.738,475.738 285.5,477.5C 283.596,477.262 282.262,476.262 281.5,474.5 Z"/></g>
<g><path style="opacity:1" fill="#262626" d="M 632.5,478.5 C 631.738,480.262 630.404,481.262 628.5,481.5C 629.262,479.738 630.596,478.738 632.5,478.5 Z"/></g>
<g><path style="opacity:1" fill="#151514" d="M 288.5,480.5 C 290.027,480.427 291.027,481.094 291.5,482.5C 289.973,482.573 288.973,481.906 288.5,480.5 Z"/></g>
<g><path style="opacity:1" fill="#232322" d="M 627.5,482.5 C 627.167,483.5 626.5,484.167 625.5,484.5C 624.262,484.19 624.262,483.69 625.5,483C 626.094,482.536 626.761,482.369 627.5,482.5 Z"/></g>
<g><path style="opacity:1" fill="#151514" d="M 300.5,489.5 C 302.027,489.427 303.027,490.094 303.5,491.5C 301.973,491.573 300.973,490.906 300.5,489.5 Z"/></g>
<g><path style="opacity:1" fill="#232322" d="M 612.5,493.5 C 612.027,494.906 611.027,495.573 609.5,495.5C 609.973,494.094 610.973,493.427 612.5,493.5 Z"/></g>
<g><path style="opacity:1" fill="#232322" d="M 609.5,495.5 C 609.027,496.906 608.027,497.573 606.5,497.5C 606.973,496.094 607.973,495.427 609.5,495.5 Z"/></g>
<g><path style="opacity:1" fill="#232322" d="M 606.5,497.5 C 606.027,498.906 605.027,499.573 603.5,499.5C 603.973,498.094 604.973,497.427 606.5,497.5 Z"/></g>
<g><path style="opacity:1" fill="#232322" d="M 589.5,507.5 C 589.027,508.906 588.027,509.573 586.5,509.5C 586.973,508.094 587.973,507.427 589.5,507.5 Z"/></g>
<g><path style="opacity:1" fill="#111211" d="M 363.5,523.5 C 365.553,523.402 367.22,524.069 368.5,525.5C 366.447,525.598 364.78,524.931 363.5,523.5 Z"/></g>
<g><path style="opacity:1" fill="#171817" d="M 544.5,527.5 C 542.485,528.924 540.152,529.59 537.5,529.5C 539.515,528.076 541.848,527.41 544.5,527.5 Z"/></g>
<g><path style="opacity:1" fill="#1e211d" d="M 409.5,536.5 C 413.733,536.539 417.733,537.205 421.5,538.5C 417.236,538.656 413.236,537.989 409.5,536.5 Z"/></g>
</svg>
