<?xml version="1.0" encoding="UTF-8"?>
<!DOCTYPE svg PUBLIC "-//W3C//DTD SVG 1.1//EN" "http://www.w3.org/Graphics/SVG/1.1/DTD/svg11.dtd">
<svg xmlns="http://www.w3.org/2000/svg" version="1.1" width="200px" height="200px" style="shape-rendering:geometricPrecision; text-rendering:geometricPrecision; image-rendering:optimizeQuality; fill-rule:evenodd; clip-rule:evenodd" xmlns:xlink="http://www.w3.org/1999/xlink">
<g><path style="opacity:0.87" fill="#000000" d="M 10.5,3.5 C 64.4049,3.16918 118.238,3.50252 172,4.5C 178.431,12.3537 185.097,20.0203 192,27.5C 192.667,82.1667 192.667,136.833 192,191.5C 190.833,192.667 189.667,193.833 188.5,195C 129.167,195.667 69.8333,195.667 10.5,195C 9.33333,193.833 8.16667,192.667 7,191.5C 6.33333,130.167 6.33333,68.8333 7,7.5C 8.37561,6.29493 9.54227,4.9616 10.5,3.5 Z M 13.5,10.5 C 22.8333,10.5 32.1667,10.5 41.5,10.5C 41.3334,23.8375 41.5001,37.1708 42,50.5C 42.8333,53.3333 44.6667,55.1667 47.5,56C 64.8333,56.1667 82.1667,56.3333 99.5,56.5C 117.588,56.6543 135.588,56.1543 153.5,55C 154.701,54.0975 155.535,52.9308 156,51.5C 156.5,37.8374 156.667,24.1707 156.5,10.5C 160.182,10.3347 163.848,10.5014 167.5,11C 173.333,17.5 179.167,24 185,30.5C 185.5,47.1633 185.667,63.83 185.5,80.5C 128.167,80.5 70.8333,80.5 13.5,80.5C 13.5,57.1667 13.5,33.8333 13.5,10.5 Z M 48.5,10.5 C 52.1667,10.5 55.8333,10.5 59.5,10.5C 59.5,23.5 59.5,36.5 59.5,49.5C 55.8936,49.7892 52.3936,49.4558 49,48.5C 48.5001,35.8377 48.3334,23.1711 48.5,10.5 Z M 66.5,10.5 C 82.5,10.5 98.5,10.5 114.5,10.5C 114.334,20.1724 114.5,29.8391 115,39.5C 115.5,40.6667 116.333,41.5 117.5,42C 121.833,42.6667 126.167,42.6667 130.5,42C 131.333,41.1667 132.167,40.3333 133,39.5C 133.5,29.8391 133.666,20.1724 133.5,10.5C 138.833,10.5 144.167,10.5 149.5,10.5C 149.5,23.5 149.5,36.5 149.5,49.5C 121.833,49.5 94.1667,49.5 66.5,49.5C 66.5,36.5 66.5,23.5 66.5,10.5 Z M 13.5,87.5 C 70.8333,87.5 128.167,87.5 185.5,87.5C 185.5,108.5 185.5,129.5 185.5,150.5C 128.167,150.5 70.8333,150.5 13.5,150.5C 13.5,129.5 13.5,108.5 13.5,87.5 Z M 118.5,111.5 C 123.979,111.148 126.645,113.648 126.5,119C 126.912,124.754 124.245,127.254 118.5,126.5C 118.5,121.5 118.5,116.5 118.5,111.5 Z M 13.5,157.5 C 70.8333,157.5 128.167,157.5 185.5,157.5C 185.5,167.833 185.5,178.167 185.5,188.5C 128.167,188.5 70.8333,188.5 13.5,188.5C 13.5,178.167 13.5,167.833 13.5,157.5 Z"/></g>
<g><path style="opacity:0.859" fill="#000000" d="M 26.5,102.5 C 30.5,102.5 34.5,102.5 38.5,102.5C 39.8906,108.509 41.3906,114.509 43,120.5C 44.9869,114.887 46.8203,109.22 48.5,103.5C 52.1073,102.511 55.774,102.177 59.5,102.5C 56.1667,113.5 52.8333,124.5 49.5,135.5C 45.4454,135.824 41.4454,135.491 37.5,134.5C 33.8193,123.812 30.1526,113.146 26.5,102.5 Z"/></g>
<g><path style="opacity:0.901" fill="#000000" d="M 66.5,102.5 C 70.1667,102.5 73.8333,102.5 77.5,102.5C 77.5,106.167 77.5,109.833 77.5,113.5C 80.5,113.5 83.5,113.5 86.5,113.5C 86.5,109.833 86.5,106.167 86.5,102.5C 90.1667,102.5 93.8333,102.5 97.5,102.5C 97.5,113.5 97.5,124.5 97.5,135.5C 93.8333,135.5 90.1667,135.5 86.5,135.5C 86.5,131.5 86.5,127.5 86.5,123.5C 83.5,123.5 80.5,123.5 77.5,123.5C 77.5,127.5 77.5,131.5 77.5,135.5C 73.8333,135.5 70.1667,135.5 66.5,135.5C 66.5,124.5 66.5,113.5 66.5,102.5 Z"/></g>
<g><path style="opacity:0.875" fill="#000000" d="M 106.5,102.5 C 114.561,102.179 122.561,102.679 130.5,104C 136.044,107.425 138.378,112.425 137.5,119C 138.448,127.119 135.115,132.452 127.5,135C 120.508,135.5 113.508,135.666 106.5,135.5C 106.5,124.5 106.5,113.5 106.5,102.5 Z M 118.5,111.5 C 118.5,116.5 118.5,121.5 118.5,126.5C 124.245,127.254 126.912,124.754 126.5,119C 126.645,113.648 123.979,111.148 118.5,111.5 Z"/></g>
<g><path style="opacity:0.908" fill="#000000" d="M 146.5,102.5 C 150.167,102.5 153.833,102.5 157.5,102.5C 157.5,110.5 157.5,118.5 157.5,126.5C 162.167,126.5 166.833,126.5 171.5,126.5C 171.5,129.5 171.5,132.5 171.5,135.5C 163.167,135.5 154.833,135.5 146.5,135.5C 146.5,124.5 146.5,113.5 146.5,102.5 Z"/></g>
</svg>
