<?xml version="1.0" encoding="UTF-8"?>
<!DOCTYPE svg PUBLIC "-//W3C//DTD SVG 1.1//EN" "http://www.w3.org/Graphics/SVG/1.1/DTD/svg11.dtd">
<svg xmlns="http://www.w3.org/2000/svg" version="1.1" width="200px" height="200px" style="shape-rendering:geometricPrecision; text-rendering:geometricPrecision; image-rendering:optimizeQuality; fill-rule:evenodd; clip-rule:evenodd" xmlns:xlink="http://www.w3.org/1999/xlink">
<g><path style="opacity:1" fill="#fefefe" d="M -0.5,-0.5 C 66.1667,-0.5 132.833,-0.5 199.5,-0.5C 199.5,66.1667 199.5,132.833 199.5,199.5C 132.833,199.5 66.1667,199.5 -0.5,199.5C -0.5,132.833 -0.5,66.1667 -0.5,-0.5 Z"/></g>
<g><path style="opacity:1" fill="#090909" d="M 11.5,3.5 C 64.501,3.33334 117.501,3.50001 170.5,4C 177.784,12.0729 184.951,20.2396 192,28.5C 192.667,82.1667 192.667,135.833 192,189.5C 191.215,191.286 190.049,192.786 188.5,194C 129.582,195.659 70.5824,195.992 11.5,195C 9.27385,193.773 7.77385,191.939 7,189.5C 6.33333,129.167 6.33333,68.8333 7,8.5C 8.36569,6.63834 9.86569,4.97167 11.5,3.5 Z"/></g>
<g><path style="opacity:1" fill="#fbfbfb" d="M 185.5,30.5 C 185.5,47.1667 185.5,63.8333 185.5,80.5C 127.833,80.5 70.1667,80.5 12.5,80.5C 12.3334,57.1643 12.5,33.831 13,10.5C 22.7504,9.51438 32.5837,9.18105 42.5,9.5C 42.3334,23.504 42.5001,37.504 43,51.5C 43.3742,52.4162 43.8742,53.2496 44.5,54C 62.579,55.1544 80.7456,55.6544 99,55.5C 117.254,55.6544 135.421,55.1544 153.5,54C 154.893,52.8289 155.727,51.3289 156,49.5C 156.5,36.1708 156.667,22.8375 156.5,9.5C 160.182,9.3347 163.848,9.50137 167.5,10C 173.709,16.7048 179.709,23.5382 185.5,30.5 Z"/></g>
<g><path style="opacity:1" fill="#f9f9f9" d="M 48.5,9.5 C 52.5,9.5 56.5,9.5 60.5,9.5C 60.5,23.1667 60.5,36.8333 60.5,50.5C 56.5633,50.7935 52.73,50.4601 49,49.5C 48.5001,36.1708 48.3334,22.8375 48.5,9.5 Z"/></g>
<g><path style="opacity:1" fill="#f8f8f8" d="M 66.5,9.5 C 82.5,9.5 98.5,9.5 114.5,9.5C 114.334,19.1724 114.5,28.8391 115,38.5C 115.374,39.4162 115.874,40.2496 116.5,41C 121.167,41.6667 125.833,41.6667 130.5,41C 131.333,40.1667 132.167,39.3333 133,38.5C 133.5,28.8391 133.666,19.1724 133.5,9.5C 139.167,9.5 144.833,9.5 150.5,9.5C 150.823,23.0792 150.49,36.5792 149.5,50C 121.835,50.5 94.1687,50.6666 66.5,50.5C 66.5,36.8333 66.5,23.1667 66.5,9.5 Z"/></g>
<g><path style="opacity:1" fill="#dddddd" d="M 185.5,30.5 C 186.497,47.3251 186.83,64.3251 186.5,81.5C 128.331,81.8324 70.3309,81.499 12.5,80.5C 70.1667,80.5 127.833,80.5 185.5,80.5C 185.5,63.8333 185.5,47.1667 185.5,30.5 Z"/></g>
<g><path style="opacity:1" fill="#fbfbfb" d="M 12.5,87.5 C 70.5,87.5 128.5,87.5 186.5,87.5C 186.5,108.833 186.5,130.167 186.5,151.5C 128.5,151.5 70.5,151.5 12.5,151.5C 12.5,130.167 12.5,108.833 12.5,87.5 Z"/></g>
<g><path style="opacity:1" fill="#090909" d="M 27.5,104.5 C 30.9619,103.518 34.6286,103.185 38.5,103.5C 39.8318,109.829 41.3318,116.163 43,122.5C 45.3012,116.294 47.1345,109.961 48.5,103.5C 51.8984,103.18 55.2317,103.513 58.5,104.5C 54.7589,114.723 51.4256,125.056 48.5,135.5C 44.8936,135.789 41.3936,135.456 38,134.5C 34.7648,124.289 31.2648,114.289 27.5,104.5 Z"/></g>
<g><path style="opacity:1" fill="#6b6b6b" d="M 67.5,103.5 C 67.5,113.833 67.5,124.167 67.5,134.5C 70.5,134.5 73.5,134.5 76.5,134.5C 76.1832,130.298 76.5166,126.298 77.5,122.5C 77.5,126.833 77.5,131.167 77.5,135.5C 73.8333,135.5 70.1667,135.5 66.5,135.5C 66.1722,124.654 66.5056,113.987 67.5,103.5 Z"/></g>
<g><path style="opacity:1" fill="#010101" d="M 67.5,103.5 C 70.5,103.5 73.5,103.5 76.5,103.5C 76.5,107.167 76.5,110.833 76.5,114.5C 80.0419,114.813 83.3752,114.479 86.5,113.5C 86.5,110.167 86.5,106.833 86.5,103.5C 89.8333,103.5 93.1667,103.5 96.5,103.5C 96.5,113.833 96.5,124.167 96.5,134.5C 93.5,134.5 90.5,134.5 87.5,134.5C 87.8168,130.298 87.4834,126.298 86.5,122.5C 83.5,122.5 80.5,122.5 77.5,122.5C 76.5166,126.298 76.1832,130.298 76.5,134.5C 73.5,134.5 70.5,134.5 67.5,134.5C 67.5,124.167 67.5,113.833 67.5,103.5 Z"/></g>
<g><path style="opacity:1" fill="#060606" d="M 107.5,103.5 C 114.175,103.334 120.842,103.5 127.5,104C 134.364,106.549 137.698,111.549 137.5,119C 137.662,128.02 133.328,133.353 124.5,135C 118.843,135.499 113.176,135.666 107.5,135.5C 107.5,124.833 107.5,114.167 107.5,103.5 Z"/></g>
<g><path style="opacity:1" fill="#020202" d="M 147.5,103.5 C 150.5,103.5 153.5,103.5 156.5,103.5C 156.5,111.167 156.5,118.833 156.5,126.5C 161.167,126.5 165.833,126.5 170.5,126.5C 170.5,129.167 170.5,131.833 170.5,134.5C 162.833,134.5 155.167,134.5 147.5,134.5C 147.5,124.167 147.5,113.833 147.5,103.5 Z"/></g>
<g><path style="opacity:1" fill="#eeeeee" d="M 117.5,111.5 C 123.875,110.049 127.208,112.549 127.5,119C 127.616,125.786 124.283,128.619 117.5,127.5C 117.5,122.167 117.5,116.833 117.5,111.5 Z"/></g>
<g><path style="opacity:1" fill="#7d7d7d" d="M 76.5,103.5 C 77.4794,106.625 77.8128,109.958 77.5,113.5C 80.5,113.5 83.5,113.5 86.5,113.5C 83.3752,114.479 80.0419,114.813 76.5,114.5C 76.5,110.833 76.5,107.167 76.5,103.5 Z"/></g>
<g><path style="opacity:1" fill="#636363" d="M 96.5,103.5 C 97.4944,113.987 97.8278,124.654 97.5,135.5C 93.8333,135.5 90.1667,135.5 86.5,135.5C 86.5,131.167 86.5,126.833 86.5,122.5C 87.4834,126.298 87.8168,130.298 87.5,134.5C 90.5,134.5 93.5,134.5 96.5,134.5C 96.5,124.167 96.5,113.833 96.5,103.5 Z"/></g>
<g><path style="opacity:1" fill="#484848" d="M 147.5,103.5 C 147.5,113.833 147.5,124.167 147.5,134.5C 155.167,134.5 162.833,134.5 170.5,134.5C 162.684,135.492 154.684,135.826 146.5,135.5C 146.172,124.654 146.506,113.987 147.5,103.5 Z"/></g>
<g><path style="opacity:1" fill="#fdfdfd" d="M 12.5,157.5 C 70.5,157.5 128.5,157.5 186.5,157.5C 186.82,168.082 186.487,178.582 185.5,189C 128.167,189.667 70.8333,189.667 13.5,189C 12.5134,178.582 12.1801,168.082 12.5,157.5 Z"/></g>
</svg>
